<?xml version="1.0" encoding="UTF-8"?>
<svg width="210" height="210" version="1.1" viewBox="0 0 210 210" xmlns="http://www.w3.org/2000/svg">
	<g stroke-width=".4608">
		<rect width="210" height="210" rx="41.472" fill="#4b4b4b"/>
		<rect x="2.0736" y="2.0736" width="205.85" height="205.85" rx="40.653" fill="#1f1f1f"/>
		<path d="m30.895 29.232v1.9745h-0.21243c-0.52762 0-0.78474 0.27602-0.81792 0.5654v0.10875c0.0341 0.28892 0.29123 0.5654 0.81792 0.5654h1.4506v-0.30228c2.0916 1.2087 4.9453 0.18478 4.9453-2.3146 0-0.15667-0.04009-0.29906-0.06221-0.44836-0.41702-0.01935-0.83819-0.01475-1.2557-0.03041 0.1857 0.54144 0.1175 1.1432-0.40873 1.6174-1.4216 1.2815-3.7896-0.12303-3.1606-1.7036l-1.2967-0.03133zm9.5878 0.38431c-0.65065 1.0912-0.15898 2.7441 1.7165 2.7441 0.44974 0 0.86584-0.1387 1.2446-0.37094v1.3543c-0.4949 0-1.0432-0.07695-1.0432 0.41472 0 0.30874 0.24192 0.41149 0.55158 0.41149 1.2584 0 1.6921 0.06359 1.8865-0.1152 0.29261-0.26818 0.16543-0.71101-0.56863-0.71101v-3.4505c-0.42532-0.04009-0.85524-0.05714-1.2815-0.09354 0.45066 0.35067 0.6442 0.94832 0.10552 1.4248-0.23362 0.2069-0.52531 0.31058-0.8746 0.31058-1.3985 0-1.4893-1.3469-0.66401-1.8404l-1.0718-0.07834zm10.802 1.1087 0.86031 1.6865-0.55987 1.1105h-0.98657c-0.23823 0-0.40781 0.04608-0.50964 0.13778-0.20321 0.18432-0.20644 0.52946 0 0.71562 0.23777 0.21519 0.72115 0.13778 2.6694 0.13778 0.87091 0 0.9663-0.99072-0.0576-0.99072l1.2133-2.3902-1.0262-0.17741-0.18801 0.37002-0.22671-0.44098c-0.3949-0.05898-0.7935-0.10276-1.1889-0.15852zm13.34 2.5164v0.47508c-0.69627 0-1.4759-0.10875-1.4759 0.58752 0 0.43822 0.34514 0.58061 0.78013 0.58061 1.7801 0 2.3911 0.09078 2.6666-0.1622 0.4138-0.37924 0.23455-1.0064-0.80363-1.0064v-0.21427c-0.38707-0.094-0.77921-0.17004-1.1672-0.26081zm-29.395 1.0331c-2.3998 0-4.8854 2.6335-3.6214 6.354 0.94464 2.78 5.078 2.3593 5.078-0.5677 0-2.1413-2.1639-3.6634-4.1527-1.9953 0.09677-0.48384 0.2516-0.88658 0.46541-1.2087 0.63222-0.94372 1.558-1.3663 2.3275-1.3663 0.30459 0 0.44513 0.22948 0.73175 0.22948 0.77414 0 1.1326-1.4455-0.82806-1.4455zm26.329 0.63176c-0.83681 0-0.97044 0.67553-0.59858 1.0064 0.26173 0.23316 0.81147 0.1622 1.5391 0.1622v5.0545c-1.4068 0-2.1833-0.13501-2.1833 0.58245 0 0.44144 0.33961 0.58614 0.78105 0.58614 3.7283 0 4.2785 0.10368 4.573-0.1622 0.24653-0.22303 0.23639-0.62945 0-0.84326-0.27924-0.25206-0.94095-0.16312-2.0036-0.16312v-6.2226h-2.1077zm-11.041 1.1234c-0.36818 0-0.66217 0.11935-0.66217 0.49213 0 0.45942 0.38385 0.49766 0.83174 0.49766v4.2868c-0.40781-0.0051-0.72991 0.07741-0.72991 0.49213 0 0.37601 0.29076 0.49766 0.66171 0.49766 0.86031 0 1.4031 0.07281 1.6354-0.13778 0.32624-0.29583 0.20966-0.85248-0.57692-0.85248v-1.8556c0.41564-0.41103 0.70917-0.6806 1.2654-0.6806 1.0483 0 0.84603 0.57876 0.84603 2.5362-0.38753-0.0051-0.72438 0.05345-0.72438 0.49213 0 0.37048 0.28339 0.49766 0.6571 0.49766 0.86216 0 1.4096 0.07281 1.6381-0.13778 0.32348-0.2986 0.20644-0.85248-0.57508-0.85248 0-1.9515 0.07235-2.328-0.26358-2.8044-0.61056-0.86861-1.9096-0.91422-2.8431-0.35988v-2.1114h-1.1594zm21.558 1.5372c-1.9999 0.0788-3.1685 2.6353-1.6027 4.1841 0.78704 0.77875 2.0708 0.97736 3.1823 0.25943 0 0.47969 0.06267 0.83312-0.26173 1.1511-0.68936 0.67599-2.5588-0.24561-2.5588 0.77506 0 0.86308 2.3727 0.55895 2.9215 0.22072 1.1884-0.73405 0.92989-1.4091 0.92989-5.3937 0.23362 0 0.53222 0.01382 0.7064-0.14331 0.21842-0.1986 0.2069-0.55664 0-0.74419-0.24376-0.22072-0.81792-0.14331-1.7368-0.14331v0.30689a2.41 2.41 0 0 0-0.67691-0.34468c-0.3138-0.09999-0.61701-0.13916-0.9027-0.12764zm0.06682 1.0285c1.122-0.05161 2.127 1.3801 1.0879 2.4077-1.3253 1.3087-3.3482-0.64973-2.016-1.9736 0.2903-0.28846 0.61378-0.41933 0.92805-0.43361zm-37.884 9.21e-4c0.67231-4.6e-4 1.1889 0.69442 1.1889 1.4515 0 1.4156-2.2174 1.8649-2.7316-0.06682 0.18478-0.43868 0.41933-0.78198 0.70364-1.028 0.28938-0.25068 0.57554-0.35712 0.83866-0.35712zm6.5986 0.03318c-0.17925 9.22e-4 -0.34514 0.0092-0.44283 0.0092-0.77046 0-0.69028 0.79442-0.09631 0.82529l0.69304 2.833h0.77783l0.57231-1.5229 0.60503 1.5239h0.76585l0.67691-2.833c0.14515-0.01106 0.25482-0.05483 0.32855-0.13133 0.15621-0.1622 0.14653-0.43315-0.01613-0.57968-0.18893-0.1705-0.94095-0.1152-1.2031-0.1152-0.73129 0-0.7958 0.82621 0.04516 0.82621l-0.32302 1.3096-0.51564-1.3418h-0.73359l-0.51195 1.3418-0.31426-1.3096c0.21197 0 0.35482-0.03272 0.42762-0.09723 0.20229-0.18017 0.18202-0.46679 0.01797-0.61471-0.11796-0.10644-0.45389-0.12488-0.75248-0.12349zm41.064 1.2013c-0.12073 4.61e-4 -0.23362 0.0065-0.29952 0.0065-0.51932 0-0.48015 0.55526-0.02166 0.55526l-0.64973 1.276-0.65618-1.276c0.12257 0 0.21335-0.02581 0.27003-0.07742a0.27648 0.27648 0 0 0 0-0.40043c-0.12626-0.11428-0.62024-0.07741-0.79304-0.07741-0.5207 0-0.44882 0.51287-0.09446 0.55526l0.96215 1.8856-0.31426 0.623h-0.5525c-0.13409 0-0.22902 0.02488-0.28616 0.07649-0.65203 0.59213 1.0359 0.47785 1.4967 0.47785 0.48614 0 0.54328-0.55526-0.03226-0.55526l1.2727-2.5081c0.09585-0.0069 0.16773-0.0364 0.21612-0.08801 0.1023-0.10737 0.09907-0.28938-0.01152-0.38984-0.0788-0.07189-0.30413-0.08387-0.50596-0.08294zm8.0432 1.81v1.7865c-0.4608 0-0.87229 0.04562-0.87229 0.52208 0 0.38845 0.30505 0.51748 0.69488 0.51748 1.5824 0 2.127 0.08156 2.3759-0.14377 0.21934-0.19768 0.21105-0.56033 0-0.75064-0.21842-0.1986-0.68475-0.14469-1.1594-0.14469v-1.3266l-1.0396-0.45988zm2.8109 3.9292-2.3939 0.01705v3.0016c0 1.1534 1.1469 0.13133 2.0888 0.13133 1.4197 0 1.9837 2.5399-0.44651 2.5399-1.4469 0-1.4976-0.86953-2.0206-0.34652-1.0396 1.0396 2.6422 2.1114 4.0509 0.78105 1.3958-1.3179 0.54605-4.8361-2.6335-3.8311v-1.2368h2.14c0.25021 0 0.42808-0.04792 0.53453-0.14469 0.21796-0.19676 0.21151-0.55987 0-0.75064-0.16312-0.14792-0.429-0.16727-1.3202-0.16128zm-22.523 0.0576c-0.38569 0-0.68936 0.12718-0.68936 0.51287 0 0.47785 0.40412 0.51748 0.86492 0.51748v4.4596c-0.42025-0.0055-0.7594 0.07741-0.7594 0.51195 0 0.39168 0.30182 0.5184 0.68843 0.5184 0.89579 0 1.4598 0.07557 1.7017-0.14331 0.34191-0.3092 0.21565-0.8875-0.60042-0.8875v-1.9303c0.42993-0.42578 0.73636-0.70917 1.3165-0.70917 1.0912 0 0.88013 0.60687 0.88013 2.6395-0.4055-0.0051-0.75433 0.05714-0.75433 0.51195 0 0.38523 0.29399 0.5184 0.6829 0.5184 0.89902 0 1.4663 0.07603 1.7045-0.14331 0.33684-0.31012 0.21473-0.8875-0.59858-0.8875 0-2.0344 0.07511-2.422-0.27372-2.9178-0.63406-0.90224-1.9879-0.95247-2.9583-0.37509v-2.1971h-1.2059zm-38.07 1.0188-0.87552 0.01244c-1.1575 0-1.0193 1.1764-0.17464 1.24l1.6252 1.3907-1.8377 1.6202c-0.22533 0.01244-0.39398 0.07603-0.50688 0.19077-0.23731 0.241-0.22579 0.65249 0.02074 0.87552 0.28938 0.26266 0.96399 0.1728 2.034 0.1728 1.0778 0 1.0479-1.0446 0.28984-1.2391l0.94326-0.7981 0.92528 0.7981a0.68659 0.68659 0 0 0-0.37186 0.22671c-0.20275 0.24837-0.17787 0.62899 0.05391 0.83958 0.29122 0.26312 0.9686 0.17188 2.0464 0.17188 1.1548 0 1.0354-1.1916 0.15114-1.2391l-1.8801-1.6137 1.6326-1.3967c0.21796-0.01613 0.38108-0.08156 0.49213-0.1963 0.23501-0.2433 0.21934-0.65065-0.02442-0.87137-0.28247-0.2562-0.93035-0.17188-1.7865-0.17188-0.47554 0-0.82806 0.15621-0.82806 0.63544 0 0.20552 0.11151 0.38661 0.33316 0.54374l-0.7382 0.63452-0.74972-0.62208c0.43453-0.28754 0.41933-0.77368 0.14838-1.0188-0.17741-0.16036-0.4972-0.18754-0.92344-0.18524zm28.977 0.31519-0.82068 0.01244c-1.0921 0-0.97044 1.1225-0.13594 1.1681l0.9792 4.0057h1.1008l0.80916-2.1547 0.85524 2.1556h1.0829l0.95662-4.0057c0.20552-0.01521 0.36081-0.07695 0.46541-0.18524 0.22026-0.22717 0.20736-0.6124-0.0235-0.82068-0.2668-0.24192-0.87782-0.1622-1.7008-0.1622-1.0373 0-1.1211 1.1681 0.06313 1.1681l-0.45619 1.8515-0.72898-1.898h-1.0377l-0.72346 1.898-0.44375-1.8515c0.30044 0 0.50135-0.04562 0.60411-0.13686 0.28708-0.25666 0.25528-0.66217 0.02534-0.86953-0.16727-0.15114-0.46863-0.17741-0.86953-0.17556zm-9.7846 0.78658-0.98288 0.01244c-0.36864 0-0.66217 0.12027-0.66217 0.49213 0 0.44698 0.36726 0.49858 0.80271 0.49858l1.657 3.3966h1.034l1.657-3.3966c0.22441 0 0.5078 0.01244 0.67415-0.13778 0.20782-0.18801 0.20183-0.5336 0-0.71562-0.23777-0.21427-0.78658-0.13778-1.8676-0.13778-0.8534 0-0.99855 0.99072 0.08709 0.99072l-1.0672 2.1934-1.0783-2.1934c0.26726 0 0.44052-0.02442 0.51748-0.07281 0.30274-0.18939 0.29261-0.58798 0.07926-0.78013-0.14792-0.13409-0.41334-0.15391-0.85064-0.15022zm49.729 0.38154c-0.26127-6e-3 -0.53176 0.11336-0.7958 0.37186v-0.24929h-0.83589c-0.32625 0-0.58752 0.10644-0.58752 0.4373 0 0.24837 0.16174 0.44191 0.54466 0.44191v2.1367c-0.1857 0-0.32256 0.04101-0.41149 0.12257-0.18294 0.16865-0.17602 0.4737 0.0018 0.63452 0.20045 0.18109 0.97321 0.12257 1.2465 0.12257 0.32624 0 0.58752-0.10737 0.58752-0.43822 0-0.24468-0.16313-0.44098-0.54467-0.44098v-1.7722c0.13962-0.19123 0.25943-0.31933 0.35989-0.38338 0.22579-0.14653 0.44513-0.1069 0.52899-0.01797 0.12304 0.12902 0.0756 2.8745 0.0756 3.0528h0.83682c0.32808 0 0.58337-0.10737 0.58337-0.43822 0-0.24745-0.16267-0.44098-0.54098-0.44098v-1.7722c1.2331-1.6063 0.95293 0.81147 0.95293 2.6514h0.83589c0.32671 0 0.58429-0.10552 0.58429-0.4373 0-0.24699-0.16174-0.44098-0.54097-0.44098v-1.9699c0-0.4244-0.20921-0.78105-0.5608-0.98381l-0.16312-0.09262c-0.141-0.05207-0.29675-0.08571-0.47416-0.08571-0.35666 0-0.66401 0.14469-0.93957 0.37371-0.2304-0.24238-0.48292-0.37463-0.74419-0.38062zm-58.803 0.24929c-0.3774 0-0.83819 0.08617-1.2008 0.18616-0.1705 0.04838-0.33823 0.08755-0.41472 0.23409-0.06774 0.12902-0.05806 0.34882 0.07465 0.48522 0.16635 0.17234 0.38062 0.12349 0.61839 0.06682 0.38523-0.09539 1.2396-0.2622 1.558-0.02811 0.1834 0.13501 0.15852 0.27187 0.15852 0.49951-4.3131-0.70687-3.1823 3.8256 0 2.1321v0.19261h0.96768c0.19906 0 0.34099-0.03825 0.42578-0.1152 0.1751-0.15852 0.16681-0.44559 0-0.59581-0.13916-0.1258-0.37878-0.1152-0.56724-0.1152v-1.6999c0-0.87322-0.73958-1.2419-1.6202-1.2419zm38.756 1.234c-0.39122-0.0074-0.78198 0.10644-1.0718 0.39168-1.322 1.2981 0.64742 3.009 2.1934 1.9897 0.54144-0.35435 0.0917-0.82206-0.23777-0.52715-0.435 0.39168-1.7957 0.34422-1.7957-0.48338 0-1.035 1.475-0.96353 1.5842-0.45896 0.08294 0.382 0.56079 0.37509 0.56079-0.1046 0-0.80317-0.24837-0.85018-0.47969-0.63083a1.5206 1.5206 0 0 0-0.36541-0.13041c-0.12672-0.02719-0.25759-0.04331-0.38799-0.04608zm-38.928 0.96307c0.2645-0.0074 0.58475 0.01843 0.96584 0.09262v0.35482c-1.94 1.3294-2.8178-0.39444-0.96584-0.44744zm67.737 3.6002c-0.46449 0-0.83082 0.15252-0.83082 0.61839 0 0.62024 0.58245 0.6253 1.0432 0.6253v5.3812c-0.46079-0.0055-0.91606 0.07188-0.91606 0.61839 0 0.47002 0.36126 0.6253 0.83174 0.6253 1.0833 0 1.7621 0.09124 2.0538-0.1728 0.41057-0.3714 0.26358-1.0709-0.72438-1.0709v-2.3303c0.58891-0.58199 0.94096-0.85524 1.5893-0.85524 1.316 0 1.0612 0.7276 1.0612 3.185-0.46264-0.0055-0.91008 0.07142-0.91008 0.61839 0 0.46909 0.36173 0.6253 0.82529 0.6253 1.0815 0 1.769 0.0917 2.0566-0.1728 0.4055-0.37325 0.26127-1.0709-0.72161-1.0709 0-2.4874 0.0848-2.9307-0.33132-3.5219-0.76861-1.0921-2.4021-1.1469-3.5703-0.4525v-2.6505h-1.4561zm-77.788 0.02811c-0.8898 0-1.0294 0.71562-0.63544 1.0663 0.27832 0.24699 0.86031 0.1728 1.6326 0.1728v3.4929l1.2386 0.02949v-4.7619h-2.2358zm29.478 0.44928c-0.83681 0-0.97044 0.67461-0.59858 1.0055 0.26173 0.23316 0.81147 0.16312 1.5391 0.16312v5.0554c-1.4068 0-2.1833-0.13594-2.1833 0.58153 0 0.44145 0.33961 0.5866 0.78106 0.5866 3.7283 0 4.2785 0.10276 4.573-0.16312 0.24653-0.22303 0.23639-0.62945 0-0.84326-0.27924-0.25206-0.94095-0.1622-2.0036-0.1622v-6.2236zm-7.7976 1.1027c-0.9769 0.01474-2.0612 0.37279-2.0612 1.5248v0.37693c-0.28431 0-0.77829-0.047-0.98288 0.13778-0.20459 0.18478-0.20321 0.5313 0 0.71562 0.20321 0.18432 0.69857 0.13778 0.98288 0.13778v2.1888l0.99072 0.17096v-2.3607h1.5271c0.9027 0 0.89902-0.99072 0-0.99072h-1.5271c0-0.55158-0.13824-1.1796 1.9519-0.76769 0.75064 0.1387 0.9368-0.51978 0.59213-0.82621-0.18708-0.16635-0.80594-0.31703-1.4741-0.30689zm46.504 0.71654c-0.59673-0.0046-0.93956 0.03686-0.93956 0.44652 0 0.40965 0.34191 0.44098 0.73819 0.44098v3.8062c-0.20044 0-0.4502-0.01244-0.60042 0.12165-0.18985 0.16819-0.18017 0.47508-0.0028 0.63544 0.20782 0.18801 1.1958 0.12257 1.4824 0.12257v-1.4635l0.16312-0.13317 0.93174 0.82437c-0.0977 0.10875-0.14562 0.21888-0.14562 0.33039 0 0.33131 0.25252 0.44191 0.5866 0.44191 0.288 0 1.2589 0.06497 1.4663-0.12257 0.18524-0.16773 0.17833-0.47416 0-0.63544-0.16542-0.1493-0.48614-0.12165-0.71009-0.12165l-1.4372-1.27 1.0672-0.86676c0.42762 0 0.83359 0.0065 0.83359-0.4373 0-0.33131-0.25344-0.44191-0.58752-0.44191-0.28524 0-1.2515-0.06543-1.4543 0.12165-0.18938 0.17372-0.15528 0.39905-0.0263 0.62116l-0.68659 0.5525v-2.9648c-0.25206 0-0.47877-0.0065-0.67784-0.0083zm-27.924 0.87229c-3.2371 0-3.4887 4.5946-0.01521 4.5946 0.55665 0 1.075-0.16911 1.5534-0.46264v1.6893c-0.61563 0-1.3022-0.09585-1.3022 0.5184 0 0.38615 0.30505 0.51195 0.68843 0.51195 1.5704 0 2.1114 0.08018 2.3528-0.14331 0.36495-0.33454 0.2069-0.8875-0.70917-0.8875v-4.655h0.18202c0.38338 0 0.68383-0.12488 0.68383-0.51287 0-0.64696-0.71194-0.5184-1.8953-0.5184v0.35205c-0.4585-0.31196-0.96722-0.48706-1.5381-0.48706zm21.606 0.0055c-0.47508-0.0055-1.0972 0.1834-1.8704 0.7405v-0.6488h-1.4147c-0.94694 0-0.94418 1.0396 0 1.0396h0.37463v2.5256c-0.47002 0-0.93312-0.05438-1.1529 0.14423-0.21658 0.19584-0.21381 0.55711 0 0.75064 0.26173 0.23639 0.78889 0.14423 3.674 0.14423 0.38615 0 0.69396-0.1258 0.69396-0.51656 0-0.65434-0.68521-0.52208-2.1754-0.52208v-1.5676c0.32809-0.27694 1.3064-1.0953 1.7354-1.0953 0.26173 0 0.48937 0.38523 0.78566 0.38523a0.52531 0.52531 0 0 0 0.52715-0.53176c0-0.288-0.38523-0.83773-1.1773-0.84695zm-1.8695 0.09078v9.22e-4zm-49.757 0.83359c-0.55019-0.0046-1.1059 0.18294-1.5372 0.54881-0.16819 0.14285-0.30182 0.31749-0.40596 0.50918l1.0755 0.07834c0.25252-0.19215 0.53775-0.32072 0.84418-0.31749 0.39721 0.0041 0.76124 0.20828 1.028 0.52577l1.0018 0.12257c-0.01567-0.05161-0.01014-0.11842-0.03041-0.16635-0.3774-0.87552-1.1709-1.2935-1.9754-1.3004zm30.028 0.10092c1.158 0 2.081 1.2704 1.0916 2.1464-0.29169 0.25851-0.65572 0.38707-1.0916 0.38707-2.1441 0-1.8363-2.5335 0-2.5335zm8.5561 1.1377c-0.56909 0.01106-1.1068 0.2797-1.1068 0.76585 0 0.56632 0.56264 0.70042 1.1179 0.75894 0.23316 0.02534 0.73728 0.06405 0.73728 0.29768 0 0.22533-0.96722 0.40228-1.411 0.02442-0.02534-0.09078-0.06036-0.15345-0.10552-0.19077-0.20091-0.16404-0.44744-0.07834-0.44744 0.50227 0 0.3926 0.28477 0.45343 0.46633 0.29768 0.11336 0.05391 0.23823 0.09585 0.37463 0.1235 1.1211 0.23132 2.0874-0.44974 1.5317-1.1626-0.26542-0.33869-0.7723-0.39076-1.2078-0.4502-0.14285-0.01982-0.50135-0.06221-0.50135-0.20598 0-0.15805 0.68659-0.34975 1.1916-0.03779a0.28109 0.28109 0 0 0 0.09815 0.16543c0.1728 0.14285 0.45527 0.09078 0.45527-0.30874 0-0.47785-0.1705-0.56402-0.34836-0.48799a0.4608 0.4608 0 0 0-0.09631 0.05668c-0.22441-0.10506-0.48891-0.15345-0.74788-0.14838zm39.248 0.07741c-1.0773 0.04378-1.7206 1.4064-0.8921 2.1916 0.41011 0.38799 1.164 0.49029 1.7755 0.13225v0.13133c0.17556 0 0.77875 0.04009 0.90639-0.07465 0.19307-0.17464 0.1069-0.46264-0.3691-0.46264v-1.2142l-0.61747-0.48246c-0.10553-0.06129-0.21105-0.11981-0.31842-0.15391-0.16865-0.05299-0.33131-0.07373-0.48522-0.06728zm0.0378 0.52577c0.63129-0.02488 1.181 0.79718 0.6336 1.2879-0.71931 0.64235-1.9427-0.26957-1.1608-1.0423 0.16727-0.16543 0.35066-0.23869 0.52715-0.24561zm-66.208 0.92713c-0.24883-6e-3 -0.63314 0.0046-1.0469 0.0092l1.763 0.3562c-0.02488-0.07649-0.03272-0.16082-0.09354-0.21612-0.11842-0.10691-0.31426-0.14193-0.623-0.1493zm18.681 4.1753c-0.62162-0.01797-1.2128 0.27648-1.6262 0.78106 0.35574 0.1281 0.7041 0.27648 1.0585 0.40781 0.15667-0.09585 0.32671-0.16266 0.50826-0.15944 0.36818 0.0069 0.75202 0.23501 1.0096 0.74327l1.2087 0.46633c-0.03686-0.16082-0.03087-0.29491-0.08387-0.46541-0.37279-1.1976-1.2294-1.7492-2.0754-1.7741zm19.43 0.10184v1.1008h1.2419v-1.1008zm20.562 0.89994c-0.79718 0.02396-1.5976 0.28063-2.2031 0.87552-1.1769 1.1561-1.2736 3.3131 0.2069 4.4071 1.1718 0.87229 3.6707 0.73221 4.708 0.04838 1.2013-0.78751 0.21611-1.8524-0.53453-1.1806-0.817 0.73129-4.0219 0.91146-4.0219-1.0829 0-2.3183 3.3039-2.1602 3.5486-1.0285 0.18478 0.85616 1.2566 0.84142 1.2566-0.23316 0-0.62623 0.0654-1.1709-0.1728-1.4345-0.21473-0.23731-0.57923-0.28385-0.90086 0.02074-0.25068-0.12994-0.52393-0.22671-0.81884-0.29076-0.34284-0.07511-0.70503-0.11244-1.0672-0.10184zm17.171 0.8875-0.50411 0.0083c-1.005 0-0.90363 1.0373-0.1258 1.0801l0.90547 3.7007h1.0161l0.74788-1.9897 0.78935 1.9897h1.0008l0.24285-1.0179-2.609-2.4851-0.57692 1.5128-0.41149-1.7109c0.2774 0 0.4631-0.04285 0.55802-0.12672 0.0157-0.01382 9e-3 -0.03456 0.0226-0.04931-0.34606-0.31288-0.70732-0.60226-1.0557-0.91146zm-38.715 0.16819c-0.52762 0.0065-0.7253 0.04378-0.8557 0.1622-0.21934 0.19768-0.21105 0.55941 0 0.74972 0.24745 0.22487 0.76078 0.14469 2.6542 0.14469v3.7818c0 0.26404-0.08755 0.48246-0.26358 0.65434-0.69535 0.68383-2.5805-0.2516-2.5805 0.78106 0 0.86768 2.3892 0.56586 2.9459 0.22303 1.2114-0.74696 0.93773-1.293 0.93773-6.4798-1.452 0-2.31-0.0235-2.8376-0.01705zm10.966 0.28063c-0.66494-0.01382-1.3455 0.17602-1.8469 0.66954-0.90085 0.88473-0.9732 2.533 0.1576 3.368 0.89533 0.6677 2.8063 0.55987 3.5984 0.03778 0.91837-0.60272 0.1645-1.4151-0.40873-0.90178-0.62577 0.56079-3.0735 0.69396-3.0735-0.82806 0-1.7713 2.5247-1.6506 2.7127-0.78566 0.14055 0.6548 0.95939 0.6442 0.95939-0.17833 0-0.28708 0.0488-0.89533-0.13225-1.0962-0.16405-0.1811-0.44283-0.21704-0.68844 0.01521-0.19215-0.09861-0.39997-0.17188-0.6253-0.2221-0.21105-0.04608-0.43085-0.07373-0.65249-0.07834zm18.535 0.86123-1.1566 0.2986c-0.4608 0.12442-0.30551 0.55803-0.0341 0.55803 0.082 0 0.56632-0.13363 0.65341-0.15667v2.2418c-0.37048 0-0.90178-0.09078-0.90178 0.26726 0 0.20367 0.15482 0.27003 0.35896 0.27003 0.18294 0 1.7653 0.04746 1.8999-0.07465 0.11244-0.10184 0.10921-0.28984 0-0.38892-0.12211-0.11105-0.64327-0.07465-0.81976-0.07465v-2.9413zm-39.504 0.94418c-0.26542 0.0046-0.53268 0.094-0.72806 0.26173v-0.18616h-0.52854c-0.10046 0-0.1622 0.03318-0.22118 0.06682l1.1133 0.49306c0.55296-0.28477 0.72852-0.03133 0.79027 0.35021 0.19676 0.09262 0.38892 0.19446 0.58475 0.288v-0.32578c0-0.65572-0.50365-0.95662-1.0105-0.94786zm18.554 5.2757c-0.27049 0-0.4631 0.05253-0.57784 0.15667-0.40136 0.36357-0.23086 0.96768 0.76953 0.96768v4.8619h-0.19169c-0.1516 0-0.23547 0.06221-0.34191 0.1046l1.4464 1.0197h0.21059v-0.27369c1.9096 1.0995 4.4845 0.15898 4.4845-2.0999 0-2.1395-2.3786-3.5892-4.4845-2.2151v-2.522h-1.3147zm31.3 0.28063v1.1432h1.2842v-1.1432zm-38.673 0.0811c-0.4267-0.0083-0.84695 0.14239-1.2331 0.39583l1.1294 0.64973c0.03364-0.0018 0.06728-0.01659 0.10092-0.01521 0.49766 0.01613 0.9216 0.3456 1.0575 0.7488l1.0451 0.66263c0.39444-1.3239-0.80686-2.4164-2.0999-2.4418zm19.516 1.0668c-0.36956-0.0074-0.74926 0.1622-1.1198 0.52485v-0.35113h-1.1842c-0.46448 0-0.83082 0.15252-0.83082 0.61839 0 0.35113 0.23086 0.6253 0.77046 0.6253v3.0205c-0.26312 0-0.45712 0.0576-0.58245 0.1728-0.25713 0.23685-0.24976 0.66954 3e-3 0.8981 0.28293 0.25574 0.92621 0.1728 1.763 0.1728 0.46448 0 0.83082-0.15252 0.83082-0.61839 0-0.34514-0.23178-0.6253-0.77046-0.6253v-2.5044c0.19815-0.27049 0.36772-0.4525 0.50965-0.54374 0.32256-0.20736 0.63129-0.15022 0.74972-0.02442 0.17372 0.18432 0.10598 4.0629 0.10598 4.3163h1.1824c0.46817 0 0.82529-0.15391 0.82529-0.61839 0-0.34975-0.2304-0.6253-0.764-0.6253v-2.5044c0.21473-0.27924 0.39629-0.46955 0.54558-0.57047 0.19815-0.12303 0.54006-0.16635 0.69765 0 0.16866 0.17833 0.10368 4.0735 0.10368 4.3191h1.1833c0.46817 0 0.82529-0.15391 0.82529-0.61839 0-0.34975-0.2304-0.6253-0.76401-0.6253v-2.7846c0-0.90317-0.62023-1.6441-1.693-1.6441-0.50274 0-0.94003 0.20552-1.3285 0.52854-0.32947-0.3456-0.68889-0.52992-1.0584-0.53729zm18.641 0.90086c-0.77229 0-0.89717 0.62162-0.55249 0.92897 0.24284 0.21565 0.74972 0.15022 1.422 0.15022v2.6215c-1.2667 0-2.0169-0.13409-2.0169 0.53729 0 0.40735 0.31243 0.54282 0.72162 0.54282 3.4449 0 3.9541 0.09493 4.2246-0.15022 0.22948-0.20736 0.21704-0.58337 0-0.77829-0.25758-0.23316-0.87183-0.15022-1.8506-0.15022v-3.7016h-1.9483zm-27.878 0.7488c1.3206-0.05161 2.4736 1.6635 1.3294 2.692-1.4939 1.3465-4.0725-0.55664-2.4307-2.1787 0.34974-0.34514 0.73175-0.49858 1.1018-0.51287zm17.772 0.54282c-0.28155-0.0055-0.56909 0.08663-0.80364 0.30781-0.4078 0.38615-0.45342 1.0004 0.0493 1.4653-0.26542 0.2046-0.4138 0.47186-0.4138 0.81008 0 0.93911 1.1188 1.1677 1.7957 0.85386 0.68244-0.31611 0.73681-1.1999 0.13409-1.6649 0.12257-0.11013 0.21473-0.22764 0.27464-0.35389 0.36126-0.75341-0.31657-1.4045-1.0359-1.4183zm-3e-3 0.5336c0.43454 0.01429 0.82391 0.47462 0.4221 0.83589-0.51195 0.4585-1.3787-0.20275-0.84419-0.68106 0.12718-0.11474 0.2774-0.15944 0.42209-0.15483zm-89.229 0.63176 0.56863 2.3238h1.1672l0.84787-2.2579c-0.43546-0.01751-0.8746-0.0212-1.3114-0.03318l-0.0028 0.0065-0.0018-0.0065-1.2681-0.03226zm108.84 0.03597c-0.22809 0-0.50918 0.05161-0.7299 0.11244-0.1023 0.02811-0.20506 0.05299-0.25206 0.14239a0.26726 0.26726 0 0 0 0.0452 0.29445c0.10092 0.10368 0.23224 0.07511 0.37601 0.04055 0.23132-0.0576 0.75341-0.15898 0.94602-0.01705 0.11198 0.08248 0.0972 0.1645 0.0972 0.30321-2.6238-0.42808-1.9335 2.322 0 1.2953v0.11704h0.58752c0.12073 0 0.2069-0.02258 0.25851-0.06912 0.10506-0.09538 0.1023-0.26957 0-0.36265-0.0848-0.07649-0.23086-0.06912-0.34468-0.06912v-1.0331c0-0.52854-0.44559-0.75341-0.98381-0.75341zm-106.24 0.03041 0.89533 2.2565h1.1502l0.50504-2.1132zm6.8659 0.5101 0.42762 1.7469h0.77783l0.57139-1.5202-0.84142-0.10783-0.04055 0.10598-0.02719-0.11428zm1.7782 0.22671 0.60411 1.5211h0.76585l0.31242-1.3068c-0.55757-0.08064-1.1216-0.14239-1.6819-0.21427zm77.999 0.07373c0.46495 0.01797 0.85755 0.55158 0.46818 0.86308-0.48937 0.38984-1.5672-0.08202-0.93174-0.68106a0.63129 0.63129 0 0 1 0.46356-0.18202zm19.485 0.48983c0.1622-0.0041 0.35896 0.01198 0.59304 0.0576v0.21612c-1.1718 0.80133-1.7271-0.2433-0.59304-0.27372zm-26.66 2.9385-2.8639 0.01982v3.591c0 1.381 1.3713 0.15759 2.4994 0.15759 1.698 0 2.3731 3.0404-0.53361 3.0404-0.36126 0-0.61608-0.06175-0.85247-0.12764 0.48107 0.43914 0.94417 0.90409 1.4193 1.352 0.71147-0.06037 1.3939-0.26358 1.8621-0.70548 1.6699-1.5764 0.65295-5.7849-3.1519-4.5836v-1.4796h2.5616c0.29952 0 0.51287-0.0576 0.64005-0.1728 0.26266-0.23777 0.2516-0.67046 0-0.8981-0.19538-0.17695-0.51379-0.19999-1.5805-0.19261zm-51.361 0.9944c-0.2645 0.2622-0.19907 0.88796-0.19907 1.7008-0.31472 0-0.79396-0.04378-1.0225 0.16312-0.24376 0.2198-0.23916 0.62669 0 0.84326 0.2281 0.2069 0.70779 0.1622 1.0225 0.1622v2.5703c0 2.3468 3.9117 1.6312 4.6674 0.90547 0.45619-0.41242 0.03456-1.2764-0.83681-0.83174-0.71562 0.36081-2.0464 0.55664-2.5072 0.19354-0.25252-0.19584-0.15483-0.82575-0.15483-2.8376h2.1602c0.83405 0 0.97183-0.67138 0.60134-1.0055-0.27924-0.25344-0.88335-0.16312-2.7611-0.16312 0-0.55941 0.02811-1.0525-0.06313-1.393l-0.90639-0.30781zm-9.3123 0.60826v1.0483h1.1833v-1.0483zm-18.891 0.61471c-0.5677 0-1.2566 0.1281-1.8017 0.27832-0.25574 0.07188-0.50642 0.13133-0.62208 0.35113a0.66816 0.66816 0 0 0 0.11151 0.72806c0.24837 0.25666 0.57323 0.18524 0.92805 0.09999 0.57416-0.14285 1.8579-0.39444 2.3363-0.04239 0.27602 0.20229 0.23869 0.41011 0.23869 0.74972-6.4715-1.0617-4.7693 5.742 0 3.1975v0.28984h1.4506c0.29814 0 0.51103-0.05806 0.63821-0.1728a0.61747 0.61747 0 0 0 0-0.89441c-0.2092-0.18939-0.56863-0.17188-0.84971-0.17188v-2.5505c0-1.3142-1.1151-1.8621-2.4298-1.8621zm99.97 0.77599c-0.49305-0.0083-1.1405 0.18662-1.9496 0.76953v-0.67415h-1.4695c-0.9838 0-0.98012 1.0792 0 1.0792h0.38984v2.6224c-0.48753 0-0.96998-0.05622-1.1981 0.15022-0.2281 0.20644-0.21888 0.58061 0 0.77875 0.27049 0.24514 0.81561 0.15022 3.815 0.15022 0.40504 0 0.72161-0.13409 0.72161-0.53729 0-0.68106-0.71793-0.5419-2.2588-0.5419v-1.6271c0.34007-0.28708 1.3557-1.1377 1.8008-1.1377 0.27372 0 0.50827 0.40043 0.81654 0.40043 0.2986 0 0.54743-0.23593 0.54743-0.5525 0-0.288-0.39306-0.8663-1.2151-0.88013zm-82.013 0.47324c-0.50273 0.0065-0.69028 0.04101-0.81469 0.15391a0.49306 0.49306 0 0 0 0 0.7147c0.23685 0.21473 0.72714 0.13778 2.5289 0.13778v3.6044c0 0.25114-0.08387 0.45896-0.25114 0.623-0.66309 0.64927-2.4588-0.23777-2.4588 0.74419 0 0.82713 2.2791 0.53914 2.8072 0.21335 1.1543-0.71424 0.89349-1.2322 0.89349-6.1747-1.3852 0-2.2026-0.02258-2.7054-0.01613zm-9.7496 0.62807c-0.24514-6e-3 -0.49858 0.10552-0.74696 0.34928v-0.23408h-0.78566c-0.30966 0-0.55158 0.1023-0.55158 0.41057 0 0.2327 0.14976 0.41472 0.51103 0.41472v2.0077c-0.17464 0-0.30367 0.03778-0.38707 0.11428a0.41472 0.41472 0 0 0 0.0028 0.59674c0.18754 0.16957 0.91376 0.11428 1.1709 0.11428 0.31058 0 0.55158-0.10276 0.55158-0.41057 0-0.23132-0.15437-0.41472-0.51195-0.41472v-1.6649c0.13133-0.18017 0.24422-0.29998 0.33823-0.3608 0.21427-0.13732 0.41887-0.09861 0.49766-0.01521 0.11566 0.12257 0.07004 2.6989 0.07004 2.8676h0.78658c0.30689 0 0.54789-0.09953 0.54789-0.41149 0-0.23363-0.15345-0.41472-0.50826-0.41472v-1.6639c1.1635-1.5156 0.89533 0.77276 0.89533 2.4902h0.78566c0.30966 0 0.54789-0.10092 0.54789-0.41057 0-0.23132-0.15022-0.41472-0.5078-0.41472v-1.8506c0-0.60273-0.41426-1.0926-1.1239-1.0926-0.33546 0-0.62623 0.13778-0.88289 0.35113-0.21704-0.22717-0.45481-0.35113-0.69995-0.35712zm107.91 0.68106-0.85525 1.4561v0.61102h1.9916v0.29353h-0.28616c-0.17695 0-0.30275 0.03364-0.37786 0.10184-0.15482 0.14008-0.14837 0.39444 0 0.529 0.17465 0.15852 1.1128 0.10184 1.3607 0.10184 0.16866 0 0.29261-0.05576 0.38062-0.14653l-1.1709-1.6119h-0.96906l0.41657-0.70733c-0.1599-0.21105-0.32948-0.41656-0.49029-0.62715zm-29.429 0.64374c-0.55112 0.01106-1.07 0.27095-1.07 0.7405 0 0.54605 0.54144 0.6783 1.082 0.73451 0.22579 0.02442 0.71378 0.06175 0.71378 0.288 0 0.21888-0.93819 0.38845-1.3663 0.0235-0.0249-0.08709-0.0581-0.14838-0.10184-0.18432-0.194-0.15944-0.43269-0.07557-0.43269 0.48614 0 0.38246 0.27878 0.43822 0.45112 0.28892a1.5805 1.5805 0 0 0 0.36265 0.11889c1.1008 0.22395 2.0137-0.44237 1.4833-1.1257-0.2562-0.32763-0.74741-0.37647-1.17-0.43453-0.13823-0.01889-0.4843-0.06036-0.4843-0.19999 0-0.15391 0.66632-0.33684 1.1529-0.03594a0.27648 0.27648 0 0 0 0.0954 0.16036c0.17003 0.1387 0.44006 0.08617 0.44006-0.2986 0-0.46264-0.16496-0.54559-0.3373-0.47232-0.029 0.01198-0.0594 0.03041-0.0926 0.05483-0.21796-0.10184-0.47509-0.14792-0.7253-0.14331zm-86.745 0.10598c0.36034-0.0046 0.77829 0.03226 1.2548 0.12488v0.53268c-0.29445 0.20137-0.62991 0.35988-1.0064 0.47693-0.55895 0.17326-1.352 0.29814-1.8404-0.02442-0.45481-0.30274 0.03087-1.0912 1.5921-1.1105zm106.39 0.05484c-0.51472 0.0106-0.99717 0.25436-0.99717 0.6912 0 0.51056 0.50641 0.63268 1.0114 0.68567 0.21105 0.02304 0.66586 0.05852 0.66586 0.27003 0 0.20367-0.87414 0.36265-1.276 0.02166-0.023-0.08202-0.0548-0.13962-0.0954-0.1728-0.18248-0.14792-0.40412-0.06866-0.40412 0.45435 0 0.35712 0.26081 0.40919 0.42117 0.26911 0.10275 0.04931 0.21565 0.08617 0.33914 0.11151 1.0092 0.20644 1.8902-0.4009 1.3842-1.0511-0.23962-0.30643-0.69812-0.35251-1.0916-0.40688-0.12902-0.01705-0.4525-0.0553-0.4525-0.18524 0-0.14377 0.61977-0.31749 1.0774-0.0341 0.0129 0.06175 0.0419 0.11198 0.088 0.14838 0.15575 0.12902 0.41149 0.08248 0.41149-0.2797 0-0.43223-0.1539-0.5078-0.31518-0.44006-0.0267 0.01152-0.0553 0.02811-0.0862 0.05115-0.20506-0.09538-0.44652-0.13824-0.6806-0.13317zm-66.807 0.01336v2.4911c0 0.26127-0.08755 0.47785-0.26173 0.64881-0.68751 0.67599-2.5588-0.24607-2.5588 0.77414 0 0.86308 2.3727 0.55941 2.9215 0.22118 0.8534-0.52669 0.92943-1.5658 0.9216-3.6117l-1.0225-0.52393zm-39.261 4.1389c-1.3077-0.03732-2.5948 0.97505-2.5948 2.7307 0 2.1303 2.1598 3.7643 4.1596 2.0492-0.12488 0.61286-0.45158 1.1308-0.9792 1.5561-0.84511 0.6806-1.7801 0.74603-2.2247 0.51747-0.78106-0.39167-1.2916 0.60826-0.66493 1.0575 1.3976 1.0285 6.4646-0.42348 4.7997-5.7761-0.44836-1.4423-1.4782-2.1059-2.4957-2.1349zm26.366 0.64097c-0.28155 0-0.48154 0.05483-0.60134 0.16312-0.41702 0.37786-0.23962 1.0064 0.80087 1.0064v5.0545h-0.19999c-1.0631 0-1.0621 1.1681 0 1.1681h1.3681v-0.28523c1.9708 1.1409 4.6601 0.17326 4.6601-2.1823 0-2.2275-2.4759-3.7283-4.6601-2.3022v-2.6215h-1.3681zm-26.437 0.59858c0.58521 0.0106 1.2041 0.48061 1.4617 1.5875-0.45527 0.96353-0.96307 1.4446-1.5239 1.4446-0.58015 0-1.2211-0.54927-1.2211-1.5534 0-0.91238 0.62024-1.4907 1.2833-1.4787zm38.741 0.13225c-1.0644-0.0051-2.1294 0.4866-2.1294 1.1405 0 0.4525 0.52762 0.74972 0.93588 0.30689 0.81884-0.9027 2.8602-0.30874 2.169 0.77138-0.52531 0.82852-1.1953 0.13041-1.6561 0.5912-0.19814 0.1986-0.20229 0.52946-0.01244 0.72622 0.20736 0.21381 0.80916 0.14377 1.1584 0.28339 1.0672 0.43914 1.5225 1.9612-0.84418 1.9612-1.4087 0-1.4524-0.68843-1.9082-0.21888-0.95155 0.98473 1.9602 1.6469 3.4758 1.0105 1.3782-0.57877 1.6381-2.4141 0.25666-3.356 0.22764-0.194 0.39905-0.40596 0.51287-0.63544 0.11382-0.22948 0.17096-0.47647 0.17096-0.74143 0-1.3326-1.0649-1.8344-2.1294-1.8395zm57.545 1.8676-0.75894 0.01152c-1.005 0-0.90363 1.0373-0.1258 1.0801l0.90547 3.7007h1.0161l0.74787-1.9897 0.78935 1.9897h1.0009l0.88381-3.7007c0.18939-0.01475 0.3327-0.07188 0.42946-0.17188a0.53914 0.53914 0 0 0-0.0207-0.75894c-0.24607-0.22303-0.8087-0.1493-1.5713-0.1493-0.95938 0-1.0359 1.0801 0.0576 1.0801l-0.42117 1.7109-0.67415-1.7543h-0.95754l-0.66862 1.7543-0.41149-1.7109c0.2774 0 0.4631-0.04285 0.55803-0.12672 0.26542-0.23547 0.23685-0.61148 0.0244-0.80363-0.15391-0.13962-0.43269-0.16312-0.80271-0.16128zm21.347 0.04838c-1.4197 0-2.8883 1.557-2.1418 3.7574 0.5608 1.6538 3.0035 1.3888 3.0035-0.33593 0-1.2686-1.2806-2.1667-2.4551-1.1801 0.0571-0.28616 0.14791-0.52439 0.27463-0.7147 0.3668-0.54789 0.9087-0.80824 1.3769-0.80824 0.17925 0 0.26496 0.13594 0.43223 0.13594 0.4608 0 0.6677-0.85524-0.48937-0.85524zm-98.441 0.22303c-0.47416 0.0083-0.95017 0.16773-1.2995 0.46725v-0.33315h-0.94141c-0.92575 0-0.85386 0.99072-0.04792 0.99072v2.4058c-0.25482 0-0.42163 0.0244-0.49858 0.0728-0.30413 0.19584-0.29122 0.58706-0.07926 0.77921 0.23224 0.21058 0.7746 0.13778 1.6354 0.13778 0.86308 0 0.9792-0.9898-0.0682-0.9898v-1.8414c0.2645-0.28662 0.48292-0.4737 0.65526-0.56264 0.3562-0.18248 0.98703-0.19169 1.2824 0.06036 0.27141 0.2327 0.17464 0.66632 0.17464 2.3436-0.2092 0-0.36449 0.0461-0.46449 0.13778a0.49766 0.49766 0 0 0 0.0028 0.7147c0.22487 0.20367 0.73636 0.13778 1.4041 0.13778 0.92344 0 0.85755-0.9898 0.04838-0.9898v-1.8414c0-1.1686-0.89856-1.705-1.8036-1.6893zm10.267 0.32855c1.3723-0.05437 2.5694 1.7298 1.3824 2.7998-1.54 1.387-4.2509-0.56218-2.5279-2.2653 0.36311-0.35942 0.7617-0.51932 1.1455-0.53453zm-19.707 0.49213c-0.45665 0.01336-0.92528 0.14653-0.92528 0.46356 0 0.13686 0.07419 0.25759 0.2221 0.36265l-0.49213 0.42301-0.49951-0.41472c0.29122-0.19307 0.2774-0.5184 0.09815-0.67968-0.18847-0.1705-0.93819-0.11428-1.199-0.11428-0.76907 0-0.68475 0.78198-0.11704 0.82529l1.0843 0.92713-1.2257 1.081c-0.15022 8e-3 -0.2622 0.0502-0.3373 0.12672a0.41472 0.41472 0 0 0 0.01336 0.58429c0.19261 0.17464 1.0838 0.1152 1.3561 0.1152 0.71885 0 0.69903-0.69811 0.19354-0.82621l0.62899-0.53177 0.61655 0.53177a0.45619 0.45619 0 0 0-0.24837 0.15114c-0.64604 0.79165 0.93911 0.67507 1.4004 0.67507 0.77092 0 0.69028-0.7958 0.10092-0.82621l-1.2529-1.0764 1.0879-0.93174c0.14515-0.01106 0.25482-0.05391 0.32855-0.13041 0.15483-0.16036 0.14838-0.43223-0.01613-0.58061-0.11428-0.10368-0.4631-0.16543-0.81792-0.15483zm37.675 0.10598-1.1944 0.30781c-0.4608 0.12396-0.31611 0.57692-0.03502 0.57692 0.08617 0 0.58383-0.13824 0.67507-0.1622v2.3155c-0.38108 0-0.9322-0.0931-0.9322 0.27648 0 0.21059 0.16174 0.27879 0.37186 0.27879 0.18985 0 1.822 0.0488 1.9621-0.0774a0.27648 0.27648 0 0 0 0-0.40043c-0.12764-0.11474-0.66401-0.0765-0.84695-0.0765v-3.0394zm57.89 0.40781c-0.25252 0.0032-0.47094 0.04746-0.47094 0.25989 0 0.2327 0.194 0.25206 0.42118 0.25206v2.1727c-0.11428 0-0.25759-7e-3 -0.34284 0.0691a0.24883 0.24883 0 0 0-2e-3 0.36265c0.11934 0.10736 0.68198 0.0691 0.84602 0.0691v-0.83497l0.0935-0.0756 0.53084 0.46955c-0.0558 0.0618-0.0839 0.12442-0.0839 0.18801 0 0.18939 0.14561 0.25206 0.33592 0.25206 0.16405 0 0.71793 0.0378 0.83589-0.0691 0.10507-0.0945 0.1023-0.26957 0-0.36173-0.0935-0.0853-0.27832-0.07-0.40504-0.07l-0.82068-0.72438 0.6101-0.49398c0.24376 0 0.47508 0.0032 0.47508-0.25021 0-0.37693-1.0105-0.32578-1.1654-0.18248-0.10829 0.09861-0.0889 0.22717-0.0152 0.35389l-0.39168 0.31612v-1.6911c-0.13685 0-0.30044-0.0129-0.45158-0.0106zm-18.809 0.73544c-0.0857 0-0.17833 0.03087-0.27187 0.04239 0.15944 0.17741 0.30781 0.36173 0.46633 0.54006 0.0737 0.01152 0.1728-0.0023 0.21888 0.03133 0.11981 0.08709 0.10368 0.17741 0.10368 0.32486-6e-3 -9.22e-4 -9e-3 9.21e-4 -0.0143 0l0.55158 0.63912v-0.77045c0-0.57001-0.482-0.80732-1.0538-0.80732zm30.55 0.26266c0.39767-4.61e-4 0.70272 0.40965 0.70272 0.85847 0 0.83451-1.311 1.1055-1.6165-0.0396 0.10967-0.25943 0.24837-0.46264 0.41656-0.60733 0.17096-0.14792 0.34099-0.21151 0.49674-0.21151zm-59.821 1.1386v0.0106c-0.47002 0-0.93404-0.0544-1.1538 0.14423-0.21704 0.19584-0.21381 0.5571 0 0.75064 0.2069 0.18708 0.92022 0.16727 2.4966 0.15114zm30.677 0.58337 0.0295 0.035c-7e-3 -9e-3 -5e-3 -0.0235-0.0134-0.0313-4e-3 -4e-3 -0.012-4.6e-4 -0.0161-4e-3zm-31.95 3.7412c-0.24975 0-0.42854 0.0479-0.53453 0.14469-0.37232 0.33638-0.21151 0.89441 0.71194 0.89441v4.4974h-0.17741c-0.94326 0-0.94694 1.0396 0 1.0396h1.217v-0.2539c1.7644 1.0193 4.1481 0.14654 4.1481-1.9413 0-1.9801-2.2035-3.3178-4.1481-2.0483v-2.333h-1.217zm-19.752 0.0567c-0.24791 0-0.4244 0.0479-0.52992 0.1433-0.36772 0.33316-0.21243 0.8875 0.70548 0.8875v4.4587h-0.17556c-0.9345 0-0.93911 1.0303 0 1.0303h1.2059v-0.25113c1.7506 1.011 4.1122 0.14515 4.1122-1.9252 0-1.9644-2.1851-3.2906-4.1122-2.0312v-2.3123zm-36.856 0.8299c-1.7796 0.0696-2.9924 1.7695-2.756 3.4012l1.3142 0.0332c-0.18616-0.52854-0.1281-1.14 0.40873-1.6741 0.34929-0.34744 0.7382-0.50458 1.1161-0.52209 1.1644-0.0534 2.2151 1.222 1.681 2.3653l1.3939 0.10599-0.01797-2.2699c0.28063 0 0.64097 0.017 0.84971-0.17188a0.61747 0.61747 0 0 0 0-0.89441c-0.29353-0.26542-0.98703-0.1728-2.0888-0.1728v0.3691a2.9307 2.9307 0 0 0-0.81285-0.41476c-0.37924-0.12073-0.74373-0.16819-1.0879-0.15482zm28.253 0.50411-0.8064 0.0115c-1.0792 0-0.96307 1.076-0.19906 1.1681l2.0224 3.9661-0.66079 1.3114h-1.1626c-0.28109 0-0.48061 0.0539-0.60042 0.1622-0.23916 0.21658-0.24376 0.62346 0 0.84326 0.28017 0.25436 0.85202 0.16312 3.1482 0.16312 1.0354 0 1.1244-1.1681-0.06912-1.1681l2.6795-5.2766c0.20091-0.0152 0.35251-0.077 0.45527-0.18524a0.58521 0.58521 0 0 0-0.02626-0.81977c-0.26726-0.24191-0.86538-0.16312-1.6948-0.16312-1.0866 0-1.0188 1.1681-0.04608 1.1681l-1.3681 2.6837-1.3778-2.6837c0.25805 0 0.44698-0.0548 0.56724-0.16312 0.24468-0.22165 0.23823-0.62854 0-0.84327-0.16681-0.15068-0.46633-0.17648-0.86123-0.17464zm98.694 0.0359-1.1483 0.0152c-0.43269 0-0.77507 0.14239-0.77507 0.57692 0 0.5442 0.47785 0.58245 0.93865 0.58245l1.9395 3.9762h1.2105l0.93174-1.9096-0.68106-1.2557-0.85525 1.757-1.2617-2.5676c0.31288 0 0.51517-0.0281 0.60595-0.0848a0.58061 0.58061 0 0 0 0.0935-0.9133c-0.17326-0.15667-0.4866-0.18063-0.99809-0.17649zm-28.932 0.2198c-0.32071-8e-3 -0.65249 0.13732-0.97643 0.45435v-0.30505h-1.028c-0.40413 0-0.72116 0.13271-0.72116 0.53637 0 0.30367 0.20045 0.54282 0.66862 0.54282v2.622c-0.0682 0-0.0935 0.0359-0.15114 0.0452l0.73175 1.0386 0.44559-5e-3c0.40412 0 0.72162-0.13271 0.72162-0.53637 0-0.3009-0.20322-0.54282-0.66862-0.54282v-2.1745c0.17187-0.23455 0.31979-0.39168 0.44282-0.47094 0.28017-0.17971 0.54651-0.13086 0.64973-0.0217 0.15068 0.15943 0.0917 3.5265 0.0917 3.7468h1.0267c0.4009 0 0.71654-0.12902 0.71654-0.53637 0-0.30182-0.19814-0.54282-0.66355-0.54282v-2.1745c0.18663-0.24238 0.3433-0.40689 0.47324-0.4949 0.17188-0.1069 0.46864-0.14469 0.60549 0 0.147 0.15529 0.0899 3.5362 0.0899 3.7495h1.0267c0.40089 0 0.71562-0.12994 0.71562-0.53729 0-0.30182-0.19814-0.54282-0.66309-0.54282v-2.4164c0-0.79303-0.54743-1.4266-1.4686-1.4266-0.43591 0-0.81607 0.17787-1.1529 0.45803-0.28293-0.29721-0.59258-0.45849-0.9133-0.46633zm-80.105 0.53269-0.69765 0.0106c-0.92114 0-0.83128 0.95108-0.11612 0.99071l0.83082 3.3966h0.93312l0.68659-1.8271 0.72345 1.8261h0.91791l0.81193-3.3966c0.17372-0.0129 0.30505-0.0659 0.39398-0.15759 0.1857-0.19262 0.17649-0.51794-0.01982-0.69489-0.22625-0.20459-0.74004-0.13778-1.4418-0.13778-0.87644 0-0.95708 0.99072 0.05299 0.99072l-0.38707 1.5695-0.61839-1.6091h-0.8792l-0.61378 1.6091-0.37693-1.5695c0.25436 0 0.42578-0.0392 0.51287-0.11612 0.24238-0.21519 0.21796-0.56033 0.02166-0.73728-0.141-0.1281-0.39583-0.15022-0.73544-0.14837zm48.172 0.58613c-0.01981 0.0516-0.07096 0.0742-0.07096 0.14331 0 0.35251 0.27049 0.4691 0.623 0.4691h0.08986l-0.64189-0.61195zm-6.7843 0.082c1.2211-0.0484 2.2869 1.5386 1.2294 2.4902-1.3663 1.2313-3.7841-0.4972-2.2482-2.0151 0.32302-0.31979 0.67691-0.46172 1.0188-0.47508zm-19.776 0.0313c1.2105-0.0479 2.2667 1.5252 1.2197 2.4685-1.3644 1.2308-3.7389-0.50826-2.2293-1.998 0.32026-0.31703 0.67092-0.45712 1.0096-0.47094zm-31.639 0.0313-0.43638 8e-3c-0.76723 0-0.67922 0.76216-0.14054 0.82621l0.76493 1.4985 1.017 0.18248-0.86308-1.681c0.18248 0 0.31611-0.0387 0.40043-0.1152 0.1751-0.15851 0.16681-0.44559 0-0.59581-0.1175-0.10645-0.44836-0.12488-0.74235-0.1235zm2.944 2e-3c-0.2433-7e-3 -0.49536 6e-3 -0.62715 6e-3 -0.76769 0-0.71977 0.82621-0.03226 0.82621l-0.87552 1.7174 0.8534 0.15299 0.94878-1.8704c0.14239-0.0111 0.25068-0.0548 0.32302-0.13133 0.15437-0.16312 0.14423-0.43407-0.01797-0.57968-0.094-0.0853-0.32809-0.11382-0.57139-0.12165zm106.23 0.30044c-1.4234 0.0553-2.2496 1.8787-1.1386 2.9772 0.56033 0.5548 1.4736 0.69489 2.2625 0.18432 0 0.33039 0.0456 0.59121-0.18524 0.81792-0.48983 0.48107-1.8197-0.17603-1.8197 0.55066 0 0.58521 1.6239 0.43637 2.0773 0.15667 0.85109-0.52531 0.66124-1.0211 0.66124-3.8357 0.16635 0 0.37924 9e-3 0.50227-0.10275a0.36403 0.36403 0 0 0 0-0.52854c-0.17234-0.15667-0.99578-0.10276-1.2349-0.10276v0.21888c-0.15252-0.10967-0.31288-0.19169-0.48153-0.24468a1.8708 1.8708 0 0 0-0.64374-0.0917zm-50.259 0.2304c-0.0028 1.7026-0.07373 2.1805 0.14146 2.5551 0.25252 0.44191 0.70042 0.72806 1.3285 0.72806 0.47646 0 0.95892-0.14791 1.3976-0.34191l-0.68567-0.71977c-1.1386 0.47508-1.2999-0.22487-1.287-1.3492-0.29353-0.29537-0.5972-0.58015-0.89441-0.87229zm50.31 0.50227c0.7981-0.0369 1.5133 0.98104 0.77414 1.7119-0.94325 0.93081-2.3791-0.46264-1.4335-1.4041 0.20643-0.20505 0.43637-0.29721 0.65986-0.30781zm-68.507 0.13409c-0.30689 2e-3 -0.62116 0.0885-0.62116 0.32302 0 0.0922 0.04931 0.17326 0.14838 0.24376l-0.33039 0.28432-0.33592-0.27879c0.19492-0.12856 0.18801-0.34606 0.06682-0.45619-0.12626-0.11474-0.63037-0.0774-0.80548-0.0774-0.52854 0-0.45066 0.52854-0.07926 0.55526l0.72898 0.62346-0.82345 0.7253c-0.10138 5e-3 -0.17741 0.0341-0.22764 0.0857-0.10506 0.10598-0.10138 0.29169 0.0092 0.3926 0.13041 0.1175 0.72944 0.0774 0.91284 0.0774 0.48338 0 0.46771-0.46863 0.12948-0.55526l0.42301-0.35804 0.4138 0.35804c-0.0705 0.018-0.1258 0.0516-0.16635 0.10092-0.40504 0.50135 0.48015 0.45434 0.94141 0.45434 0.53084 0 0.4502-0.53544 0.06728-0.55526l-0.84234-0.72345 0.73083-0.62531c0.09769-7e-3 0.17142-0.0364 0.22118-0.088a0.27648 0.27648 0 0 0-0.01152-0.38984c-0.07741-0.0696-0.3115-0.11796-0.54973-0.11612zm57.913 0.20414c-0.1493-5e-3 -0.30321 0.0627-0.45527 0.21242v-0.14146h-0.47693c-0.18893 0-0.335 0.0622-0.335 0.24929 0 0.14147 0.0912 0.25206 0.31058 0.25206v1.2197c-0.10645 0-0.18432 0.0221-0.23501 0.0691-0.10276 0.0949-0.1023 0.27003 9.2e-4 0.36265 0.11474 0.10322 0.55388 0.0691 0.71101 0.0691 0.18663 0 0.33593-0.0613 0.33593-0.25021 0-0.13962-0.0922-0.25206-0.31058-0.25206v-1.0105c0.70917-0.97183 0.55065 0.58383 0.55065 1.5128h0.47693c0.18709 0 0.33316-0.0617 0.33316-0.25021 0-0.14101-0.0922-0.25206-0.30874-0.25206v-1.0105c0.71332-0.92759 0.54375 0.49259 0.54375 1.5128h0.47692c0.18663 0 0.33316-0.0613 0.33316-0.25021 0-0.14101-0.0922-0.25206-0.30873-0.25206v-1.1239c0-0.36956-0.25344-0.66309-0.68291-0.66309-0.20229 0-0.38016 0.0834-0.53637 0.21335-0.12994-0.13685-0.27371-0.21243-0.42301-0.21703zm-36.79 2.1611v0.13225h0.1258zm-29.241 3.4436c-1.0179 0.0106-2.151 0.3737-2.151 1.5833v0.3926c-0.29537 0-0.81101-0.0493-1.0234 0.14331-0.21796 0.19676-0.20736 0.55619 0 0.74419 0.21243 0.19169 0.72806 0.14331 1.0234 0.14331v2.504c-0.60964 0-1.3022-0.0935-1.3022 0.51287 0 0.38938 0.29952 0.51748 0.68843 0.51748 2.8611 0 3.3832 0.0912 3.6422-0.14331 0.21612-0.19584 0.20966-0.55434 0-0.74419-0.24607-0.22257-0.81147-0.14331-1.9989-0.14331v-2.504h1.5893c0.93911 0 0.93588-1.0304 0-1.0304h-1.5884c0-0.57968-0.13824-1.2253 2.0303-0.79902 0.78059 0.14331 0.97459-0.54052 0.61563-0.85939-0.18754-0.16589-0.82898-0.32395-1.5252-0.31657zm-10.6 1.2096c-0.67185-5e-3 -1.3276 0.23086-1.8902 0.61655l1.2455 0.63913c0.20183-0.0613 0.40873-0.10091 0.61839-0.0981 0.68429 9e-3 1.3617 0.35482 1.7128 1.0105h-0.64235l1.9358 1.1142v-0.44099c0-0.3797-0.06129-0.71424-0.18248-1.0027-0.53591-1.2418-1.6598-1.8308-2.7971-1.8386zm97.072 0.1811-1.1483 0.0152c-0.43269 0-0.77506 0.14239-0.77506 0.57692 0 0.54421 0.47785 0.58245 0.93865 0.58245l1.9395 3.9762h1.2105l1.9395-3.9762c0.26174 0 0.59444 0.0148 0.78935-0.16127 0.24331-0.22027 0.23639-0.62347 0-0.83682-0.27832-0.25067-0.91929-0.16128-2.186-0.16128-1.0045 0-1.1608 1.1594 0.10184 1.1594l-1.2492 2.5676-1.2617-2.5676c0.31289 0 0.51518-0.0281 0.60596-0.0848a0.58061 0.58061 0 0 0 0.0935-0.91331c-0.17326-0.15667-0.48661-0.18063-0.99809-0.17648zm-26.677 0.35712c-0.0899-2e-3 -0.31288 2e-3 -0.42393 3e-3l0.67783 1.0691c0.67369-0.0548 0.79211-0.61471 0.46633-0.91008-0.12948-0.11658-0.33178-0.15391-0.71977-0.1622zm-41.583 0.0207c-2.0178 0.0779-3.1943 2.6616-1.6174 4.2228 0.79165 0.78382 2.0879 0.98565 3.2095 0.26081 0 0.48384 0.06405 0.84004-0.26358 1.1603-0.69535 0.68383-2.5805-0.2516-2.5805 0.78106 0 0.86768 2.3892 0.56586 2.9459 0.22302 1.187-0.73175 0.93773-1.3626 0.93773-5.4406 0.23639 0 0.53775 0.0138 0.71286-0.14469 0.2198-0.19815 0.21059-0.55988 0-0.74972-0.24653-0.22257-0.82483-0.1447-1.7524-0.1447v0.30966c-0.21658-0.15575-0.44329-0.27187-0.68106-0.34744-0.31703-0.10138-0.62254-0.14147-0.911-0.13041zm10.171 0.51195c-0.65618-0.0129-1.3151 0.17787-1.8036 0.65802-0.86861 0.85432-0.97321 2.4722 0.15482 3.3058 0.87921 0.65341 2.751 0.55019 3.5306 0.0369 0.89948-0.58982 0.16358-1.3898-0.40044-0.88566-0.6101 0.54789-3.0168 0.68383-3.0168-0.81192 0-1.7372 2.4782-1.6216 2.662-0.77138 0.14008 0.64696 0.94233 0.62761 0.94233-0.17557 0-0.28155 0.0493-0.8792-0.12948-1.0755-0.16036-0.17833-0.43408-0.21243-0.676 0.0152a2.5759 2.5759 0 0 0-0.6147-0.21888c-0.21197-0.0461-0.43039-0.0733-0.64881-0.0774zm-10.104 0.52716c1.1322-0.0521 2.1459 1.3921 1.0972 2.4275-1.3345 1.3206-3.3758-0.65296-2.033-1.9897 0.29307-0.29076 0.61885-0.42301 0.93588-0.43729zm-11.921 0.20782c-0.2797 4e-3 -0.52116 0.0525-0.52116 0.288 0 0.2585 0.21565 0.2797 0.46633 0.2797v2.4022c-0.12626 0-0.28523-7e-3 -0.3797 0.0774-0.12027 0.10737-0.11244 0.29906-9.22e-4 0.40043 0.13041 0.11843 0.75479 0.0774 0.93496 0.0774v-0.92344l0.10368-0.0848 0.58752 0.52024c-0.06129 0.0682-0.0917 0.13778-0.0917 0.20782 0 0.21151 0.1622 0.27971 0.37094 0.27971 0.18109 0 0.79534 0.041 0.92528-0.0774a0.27648 0.27648 0 0 0 0-0.40043c-0.10368-0.094-0.30689-0.0774-0.44836-0.0774l-0.90731-0.8018 0.67415-0.54696c0.27003 0 0.52577 4e-3 0.52577-0.27648 0-0.4161-1.117-0.36081-1.2898-0.20137-0.11981 0.11013-0.09769 0.25113-0.01613 0.39168l-0.43269 0.34928v-1.8708c-0.15114 0-0.3327-0.0148-0.50043-0.0124zm69.341 0.235c-0.48891 6e-3 -1.0018 0.11751-1.0018 0.40873 0 0.33132 0.27234 0.36818 0.59397 0.36818l1.2257 2.5137h0.76585l1.2257-2.5137c0.16497 0 0.37601 9e-3 0.49951-0.10276 0.15391-0.14008 0.14838-0.3926 0-0.52853-0.17557-0.15852-1.1313-0.10184-1.3824-0.10184-0.63406 0-0.73682 0.73267 0.0641 0.73267l-0.78935 1.6229-0.7981-1.6229c0.19722 0 0.32532-0.018 0.38246-0.0539 0.22395-0.13917 0.21704-0.43362 0.0594-0.57692-0.0991-0.0899-0.46495-0.15022-0.84511-0.14562zm-9.0916 0.0405-1.0792 0.27879c-0.43499 0.1152-0.28615 0.52116-0.0323 0.52116 0.0769 0 0.52761-0.12534 0.60917-0.14653v2.0934c-0.34422 0-0.84142-0.0853-0.84142 0.24929 0 0.18939 0.14469 0.25298 0.335 0.25298 0.17142 0 1.6483 0.0442 1.7741-0.07a0.24883 0.24883 0 0 0 0-0.36173c-0.11336-0.10368-0.60042-0.07-0.76493-0.07v-2.7468zm-30.134 1.8414v0.16358c-0.31933 0-0.52715 0.0299-0.62484 0.0908a0.62208 0.62208 0 0 0-0.1 0.98012c0.25621 0.23132 0.86585 0.18893 1.7308 0.17556l-1.0064-1.4105zm58.369 0.71746c-0.15252 0.0419-0.27095 0.11981-0.27095 0.32026 0 0.21242 0.26634 0.31288 0.57508 0.36449-0.0972-0.22994-0.20598-0.45527-0.30413-0.68475zm-7.0346 3.2076v1.2266h1.3861v-1.2266zm-58.462 1.2962c-1.8151 0-3.6744 1.9916-2.7261 4.7826 0.7101 2.0893 3.8223 1.7791 3.8223-0.42763 0-1.6132-1.6271-2.757-3.1247-1.5022 0.0728-0.36403 0.18893-0.66724 0.34929-0.91008 0.47508-0.71009 1.1723-1.0285 1.7524-1.0285 0.22948 0 0.33546 0.1728 0.54973 0.1728 0.58337 0 0.85248-1.087-0.623-1.087zm7.5824 0.51656-0.87413 0.0134c-1.1594 0-1.0405 1.1958-0.14562 1.2437l1.0432 4.2652h1.1709l0.86216-2.2938 0.90916 2.2938h1.1529l0.7958-3.3284c-0.43546-0.71331-0.89995-1.4068-1.3529-2.1086-0.8276 0.19031-0.84142 1.1718 0.30228 1.1718l-0.48522 1.9708-0.77691-2.0197h-1.1045l-0.77046 2.0197-0.47324-1.9708c0.31934 0 0.53453-0.0484 0.64374-0.14561 0.30551-0.27234 0.27233-0.70318 0.0272-0.92529-0.17787-0.16082-0.49767-0.18847-0.92437-0.18616zm49.785 0.3691c-0.58844 7e-3 -0.80916 0.0479-0.95477 0.18017-0.24192 0.21842-0.23732 0.62162 0 0.83635 0.27694 0.25114 0.84971 0.1622 2.9611 0.1622h9.2e-4v4.2182c0 0.29445-0.0995 0.53729-0.29537 0.7299-0.77414 0.75848-2.8782-0.27648-2.8782 0.87045 0 0.96722 2.668 0.63084 3.286 0.2493 1.3534-0.83497 1.0456-1.4483 1.0456-7.2281-1.6202 0-2.5768-0.0253-3.1652-0.018zm-68.092 0.40873c-0.69258-6e-3 -1.3912 0.22994-1.9331 0.69027-1.6418 1.3953-0.95017 4.9997 3.4454 4.0509 1.7469-0.37693 1.1105-1.2197 0.64973-1.2197s-3.1302 1.0644-3.7781-0.55249h4.2652v-0.44099c0-0.33776-0.0553-0.63452-0.16312-0.89165-0.47508-1.1004-1.4736-1.6271-2.4856-1.6363zm-0.02534 1.0313c0.60872 9e-3 1.2114 0.3161 1.5229 0.89809h-3.0827c0.33592-0.61609 0.95109-0.90685 1.5598-0.89809zm77.548 0.34375c-0.21888-6e-3 -0.44514 0.0926-0.66862 0.3115v-0.20782h-0.70134c-0.27464 0-0.49213 0.0894-0.49213 0.36634 0 0.20874 0.13455 0.37094 0.45619 0.37094v1.7911c-0.15621 0-0.27141 0.0341-0.3456 0.10275-0.1516 0.13963-0.14792 0.39629 2e-3 0.53177 0.16681 0.15206 0.81562 0.10368 1.0451 0.10368 0.27648 0 0.49214-0.0917 0.49214-0.36726 0-0.2046-0.13548-0.37094-0.45619-0.37094v-1.4852c0.11704-0.16082 0.21749-0.26818 0.30136-0.3221 0.19123-0.12349 0.37555-0.0885 0.44467-0.0143 0.10322 0.10875 0.0631 2.4086 0.0631 2.5588h0.70134c0.27417 0 0.48983-0.0894 0.48983-0.36725 0-0.20736-0.13548-0.37095-0.45343-0.37095v-1.4852c1.034-1.3478 0.7981 0.68382 0.7981 2.2229h0.7018c0.13686 0 0.25851-0.0226 0.34652-0.0793l-0.2069-0.62623c-0.0396-7e-3 -0.0557-0.0323-0.10368-0.0323v-0.28247l-0.83681-2.3114c-0.0571-8e-3 -0.10414-0.0304-0.16635-0.0304-0.29767 0-0.55618 0.11981-0.7875 0.31243-0.19262-0.20183-0.40412-0.31243-0.623-0.31842zm-19.373 0.0263c-2.3026 0-2.4809 3.268-0.0106 3.268 0.39629 0 0.76631-0.12119 1.1045-0.32855v1.2008c-0.43684 0-0.92621-0.0682-0.92621 0.36818 0 0.27509 0.2175 0.36449 0.49029 0.36449 0.25851 0 1.5004 0.0567 1.6732-0.10184 0.26035-0.24054 0.14515-0.63083-0.50503-0.63083v-3.3113h0.1304c0.27556 0 0.48614-0.0912 0.48614-0.36449 0-0.46172-0.51425-0.36818-1.3483-0.36818v0.25022c-0.33823-0.22948-0.70134-0.34652-1.0944-0.34652zm-48.154 0.55802c0.50595-4.6e-4 0.89441 0.52071 0.89441 1.0926 0 1.0608-1.6676 1.4082-2.0566-0.0502 0.13962-0.32993 0.31657-0.58798 0.52992-0.77322 0.2175-0.188 0.43361-0.26864 0.63176-0.26911zm48.158 0.17557c0.82437 0 1.4815 0.9027 0.7769 1.5257-0.20736 0.18385-0.46725 0.27647-0.7769 0.27647-1.51 0-1.3262-1.8017 0-1.8017zm-69.442 0.0811c-0.4972-6e-3 -0.99763 0.21842-1.2663 0.68567-0.09861 0.17234-0.1129 0.34191-0.13317 0.5101 0.46402 0.46172 0.90962 0.94142 1.3607 1.4156 0.0088 0 0.01474 6e-3 0.0235 6e-3 1.0677 0 1.7916-0.9792 1.2598-1.9271-0.25298-0.4502-0.74742-0.68475-1.2446-0.69028zm58.932 0.23962c-0.0719 0-0.12488 0.0263-0.19077 0.035 0.0723 0.15575 0.13685 0.31472 0.20874 0.47093 0.55803 0.0111 0.99486 0.61932 0.51748 1.0414-0.0129 0.0115-0.035 6e-3 -0.0484 0.0171l0.20598 0.46541c0.0175-0.01 0.0387-6e-3 0.0558-0.0171v0.1433l0.51287 1.1594c0.11197-0.0203 0.30136-0.0175 0.33408-0.0479 0.17832-0.16358 0.11519-0.43177-0.3456-0.43177v-2.2671h0.0889c0.18847 0 0.33316-0.0622 0.33316-0.24929 0-0.34422-0.5548-0.25206-0.92344-0.25206v0.17096a1.3087 1.3087 0 0 0-0.7488-0.23777zm-58.941 0.30136c0.65203 0.0207 1.2266 0.75617 0.62024 1.2962-0.77276 0.68613-2.0648-0.27234-1.2566-1.0451 0.19354-0.1857 0.41887-0.25804 0.63636-0.25113zm28.625 3.9707c-0.29952 0-0.51287 0.0576-0.64005 0.1728-0.44513 0.40274-0.25298 1.0709 0.85248 1.0709v5.3812h-0.21243c-1.1322 0-1.1299 1.2437 0 1.2437h1.4561v-0.30321c2.1105 1.2188 4.9633 0.17603 4.9633-2.3238 0-2.3713-2.6367-3.9702-4.9633-2.4514v-2.7901zm-19.578 1.2916c-0.38938 0-0.69581 0.12903-0.69581 0.51656 0 0.48338 0.41149 0.52301 0.87229 0.52301v4.4974c-0.42348-6e-3 -0.76493 0.0793-0.76493 0.51747 0 0.39399 0.30228 0.52209 0.69488 0.52209 0.90593 0 1.4713 0.0756 1.7156-0.14469 0.3433-0.3115 0.21934-0.89441-0.60595-0.89441v-1.9469c0.43546-0.43131 0.74557-0.71562 1.3285-0.71562 1.1004 0 0.8875 0.60779 0.8875 2.662-0.40781-6e-3 -0.76032 0.0567-0.76032 0.51747 0 0.39168 0.30044 0.52209 0.68936 0.52209 0.90639 0 1.4778 0.076 1.7179-0.14469 0.34007-0.31334 0.21704-0.89441-0.60319-0.89441 0-2.0515 0.07511-2.4432-0.27648-2.9431-0.64143-0.91284-2.0045-0.95892-2.9837-0.37785v-2.2183h-1.216zm70.235 1.4294-0.81976 0.0124c-1.0778 0-0.96215 1.099-0.1645 1.1594l1.522 1.3004-1.7192 1.5156c-0.21151 0.0115-0.37049 0.0719-0.47601 0.17925a0.58061 0.58061 0 0 0 0.0198 0.81884c0.27141 0.24561 0.90041 0.1622 1.9036 0.1622 1.0096 0 0.98012-0.98012 0.27187-1.1603l0.88289-0.74603 0.86492 0.74603c-0.147 0.0378-0.26312 0.10875-0.34744 0.21243-0.19124 0.23408-0.16543 0.59028 0.0502 0.78566 0.27187 0.24607 0.90363 0.1622 1.9142 0.1622 1.0801 0 0.96906-1.116 0.14147-1.1603l-1.7584-1.5091 1.5266-1.3059c0.20321-0.0152 0.35711-0.077 0.46079-0.18432 0.21981-0.2281 0.20506-0.60872-0.0226-0.81377-0.2645-0.23962-0.86999-0.16221-1.6704-0.16221-0.44421 0-0.77507 0.14424-0.77507 0.59397 0 0.19216 0.10322 0.36173 0.31058 0.50827l-0.68935 0.59397-0.7018-0.58338c0.40781-0.26864 0.39122-0.72437 0.1387-0.95201-0.16543-0.14976-0.46356-0.17556-0.86215-0.17372zm-11.495 0.51011c-0.17649 0-0.30228 0.0346-0.37786 0.10276-0.26127 0.23823-0.14837 0.62991 0.5032 0.62991v3.1717h-0.12488c-0.66678 0-0.66585 0.73267 0 0.73267h0.85755v-0.17833c1.2492 0.71885 2.9252 0.0995 2.9252-1.37 0-1.3999-1.5589-2.3367-2.9252-1.4437v-1.645h-0.85755zm-35.945 0.17556c1.4612-0.0576 2.7353 1.839 1.4704 2.9791-1.6492 1.4865-4.5112-0.61332-2.6911-2.4118 0.38708-0.38201 0.81147-0.55066 1.2202-0.56725zm-12.87 0.3304-0.0046 1.0234c0 0.22211 0.04286 0.38016 0.12948 0.47601 0.28385 0.3138 0.80732 0.18985 0.80732-0.56725h1.4294l-2.457 2.4266v0.77322h4.0592v-0.82805c0-0.864-0.89718-0.78889-0.93312-0.10461h-1.6381l2.4662-2.4353v-0.764h-3.8583zm68.894 0.51102-5e-3 0.89718c0 0.19445 0.0378 0.33269 0.11336 0.41656 0.24929 0.27464 0.70825 0.16681 0.70825-0.49674h1.252l-2.1528 2.1257v0.67783h3.5569v-0.7253c0-0.75663-0.78704-0.69074-0.81791-0.0917h-1.4354l2.1616-2.134v-0.66954zm-18.184 0.99072c0.86123-0.0341 1.6123 1.0843 0.86676 1.7556-0.96307 0.86953-2.6676-0.3502-1.5856-1.4211 0.22763-0.22533 0.47785-0.32532 0.71931-0.335zm-31.152 0.24376-0.28339 6e-3c-0.50365 0-0.43453 0.49628-0.0917 0.53729l0.93035 1.8243-0.30412 0.60318h-0.53453c-0.12903 0-0.22118 0.0258-0.27648 0.0756-0.63037 0.57047 0.98749 0.46173 1.4483 0.46173 0.47416 0 0.52024-0.5373-0.0313-0.5373l1.1446-2.2552-0.3221-0.71101a7.6216 7.6216 0 0 1-0.17187 2e-3c-0.49859 0-0.46956 0.53729-0.0217 0.53729l-0.62807 1.235-0.63452-1.235c0.11888 0 0.20459-0.0249 0.25989-0.0746 0.11289-0.1023 0.10875-0.28939 0-0.388-0.0765-0.0691-0.29169-0.0811-0.48338-0.0802zm-27.268 5.5531c-0.53084 0-0.9474 0.16589-1.3013 0.38431l0.51103 0.88842c1.0142-0.66493 2.6662 0.25436 1.698 1.3741-0.07419 0.0843-0.51932 0.44514-0.64788 0.56955l0.51563 1.0055c0.09953-0.0908 0.34929-0.29998 0.42117-0.3691 2.092-1.9828 0.61563-3.8527-1.1972-3.8527zm77.354 0.96768c-0.65295 0-0.75755 0.52531-0.46725 0.78382 0.20368 0.18156 0.63268 0.12672 1.1995 0.12672v3.9403c-1.0985 0-1.7017-0.10506-1.7017 0.45251 0 0.34468 0.26496 0.45711 0.60826 0.45711 2.9021 0 3.3362 0.0816 3.5647-0.1258 0.19123-0.17372 0.1857-0.48983 0-0.65802-0.21612-0.1963-0.73636-0.12672-1.5616-0.12672v-4.8499h-1.6423zm-57.181 0.088c-3.9039 0-4.2149 5.5457-0.0189 5.5457 0.67876 0 1.3059-0.2092 1.8745-0.55803v2.0386c-0.7299 0-1.5381-0.10737-1.5658 0.59213l-2.1169 0.5465c-1.0843 0.29123-0.65019 1.2926-0.0783 1.2926 0.19169 0 1.3064-0.31104 1.51-0.3645v5.1877c-1.199 0-2.087-0.15114-2.087 0.61931 0 0.47002 0.36173 0.62485 0.83174 0.62485 3.4532 0 4.0827 0.11013 4.3956-0.1728 0.26265-0.23777 0.25159-0.67046 0-0.8981-0.28432-0.25713-0.92298-0.1728-1.8953-0.1728v-6.0328c0.0839 0.0138 0.17234 0.0217 0.26634 0.0217 1.8962 0 2.5468 0.0963 2.8394-0.1728 0.44282-0.40735 0.24652-1.07-0.85571-1.07v-5.6185h0.21888c0.46817 0 0.82529-0.15483 0.82529-0.61932 0-0.78105-0.86077-0.62484-2.2879-0.62484v0.42486c-0.55204-0.37509-1.1654-0.58844-1.8556-0.58844zm47.711 0.52301-1.1483 0.0152c-0.43269 0-0.77507 0.14238-0.77507 0.57692 0 0.5442 0.47785 0.58245 0.93865 0.58245l1.9395 3.9753h1.2105l1.9395-3.9753c0.26173 0 0.59443 0.0147 0.78935-0.16128 0.2433-0.2198 0.23639-0.62346 0-0.83681-0.27832-0.25068-0.9193-0.16128-2.186-0.16128-1.0046 0-1.1608 1.1594 0.10183 1.1594l-1.2492 2.5676-1.2617-2.5676c0.31288 0 0.51517-0.0281 0.60595-0.0848a0.58061 0.58061 0 0 0 0.0935-0.9133c-0.17326-0.15667-0.4866-0.18064-0.99809-0.17649zm-10.187 0.51287v0.77599h0.8723v-0.77599zm-37.513 0.20782c1.4077 0 2.5012 1.5409 1.3165 2.5902-0.35159 0.3115-0.79073 0.46817-1.3165 0.46817-2.5786 0-2.227-3.0583 0-3.0583zm-9.1206 0.22072c-0.42808 2e-3 -0.98104 0.17419-1.6534 0.65895v-0.58153h-1.269c-0.85017 0-0.84648 0.93312 0 0.93312h0.33638v2.2662c-0.27832 0-0.83911-0.0493-1.0349 0.12856a0.46541 0.46541 0 0 0 0 0.67323c0.23455 0.21196 0.70917 0.12948 3.2966 0.12948 0.34652 0 0.623-0.11243 0.623-0.46356 0-0.5889-0.61886-0.4691-1.952-0.4691v-1.4068c0.29445-0.24837 1.1709-0.98288 1.5561-0.98288 0.23501 0 0.43914 0.3456 0.70548 0.3456a0.47002 0.47002 0 0 0 0.47232-0.47785c0-0.288-0.36725-0.75755-1.081-0.75433zm-1.6524 0.0765v9.2e-4zm47.937 0.88657c-0.52393 0-0.60918 0.4221-0.37509 0.63084 0.16358 0.14607 0.73036 0.10183 0.96491 0.10183v1.7801c-0.84004 0-1.369-0.0968-1.369 0.36449 0 0.27833 0.21473 0.36818 0.48983 0.36818 0.24837 0 2.6855 0.065 2.8694-0.10183 0.15391-0.13963 0.14884-0.39353 0-0.529-0.17372-0.15806-1.0193-0.10184-1.2566-0.10184v-2.5127h-1.323zm-28.376 0.81792c-0.26082 8e-3 -0.58983 0.11612-0.95939 0.38247v-0.33593h-0.73175c-0.49075 0-0.48752 0.53729 0 0.53729h0.19354v1.305c-0.16036 0-0.48384-0.0276-0.59674 0.0746-0.11289 0.10229-0.10874 0.2903 0 0.38891 0.13456 0.12211 1.7169 0.0746 1.8999 0.0746 0.19999 0 0.35896-0.0645 0.35896-0.26726 0-0.38431-0.54144-0.27003-1.1239-0.27003v-0.81101c0.17004-0.14331 0.67415-0.5654 0.89626-0.5654 0.13685 0 0.25344 0.19907 0.40688 0.19907a0.27187 0.27187 0 0 0 0.2728-0.27556c0-0.24376-0.23547-0.44836-0.61655-0.4373zm-27.18 1.2349c-0.09585-6e-3 -0.20413 0.0535-0.3115 0.1152 0.16865 0.35574 0.3244 0.71839 0.48706 1.0774h0.28431c0-0.29168 0.04746-0.82299-0.13962-1.035-0.08156-0.0912-0.19308-0.15022-0.32026-0.1576zm84.368 4.4504c-0.15668 0.0189-0.31657 0.0359-0.39491 0.10691-0.34882 0.31518-0.20644 0.80686 0.56448 0.87552l-0.16911-0.98289zm-6.5143 0.80456c-0.92943-0.0138-2.0188 0.30643-2.0188 1.4096v0.34652c-0.26035 0-0.71655-0.0428-0.90363 0.12672-0.19169 0.17372-0.18524 0.48891 0 0.6571s0.64328 0.12672 0.90363 0.12672v2.2123c-0.53729 0-1.1502-0.0834-1.1502 0.45343 0 0.34467 0.26496 0.45711 0.60826 0.45711 2.5284 0 2.9892 0.0806 3.2173-0.12672 0.19031-0.17188 0.18662-0.48891 0-0.6571-0.21658-0.19676-0.71424-0.12672-1.7649-0.12672v-2.2123h1.4031c0.83128 0 0.82575-0.911 0-0.911h-1.4031c0-0.47462-0.16405-1.0902 1.7944-0.7064 0.68935 0.12718 0.86123-0.47601 0.54374-0.7594-0.1728-0.15299-0.67277-0.28155-1.2303-0.28984zm-70.733 0.19261c-0.56264 0-0.46909 0.59489-0.46909 1.4653-0.25114 0-0.63452-0.0355-0.817 0.12949a0.46541 0.46541 0 0 0 0 0.67322c0.18155 0.16497 0.56632 0.12949 0.817 0.12949v2.0519c0 1.8381 3.0804 1.3437 3.7269 0.72345 0.36265-0.32901 0.029-1.0188-0.66954-0.66493-0.54743 0.27648-1.6146 0.45896-2.0017 0.15575-0.20045-0.15667-0.1235-2.0109-0.1235-2.2662h1.7243c0.66678 0 0.77599-0.53545 0.48062-0.80271-0.22303-0.20183-0.70641-0.12949-2.2049-0.12949 0-0.81193 0.10875-1.4653-0.46356-1.4653zm59.107 0.44928-0.81977 0.0115c-1.0778 0-0.96214 1.099-0.1645 1.1594l1.522 1.3004-1.7192 1.5165c-0.21151 0.0115-0.37049 0.071-0.47601 0.17833-0.22164 0.22625-0.21012 0.61148 0.0198 0.81976 0.27141 0.2456 0.9004 0.16128 1.9036 0.16128 1.0096 0 0.98012-0.9792 0.27187-1.1594l0.88289-0.74696 0.86492 0.74696c-0.147 0.0378-0.26312 0.10782-0.34744 0.2115-0.19123 0.23409-0.16543 0.59121 0.0502 0.78659 0.27188 0.24606 0.90363 0.16128 1.9142 0.16128 1.0801 0 0.96906-1.1151 0.14147-1.1594l-1.7584-1.51 1.5266-1.3059c0.20321-0.0152 0.35712-0.076 0.4608-0.1834 0.2198-0.22809 0.20505-0.60963-0.0226-0.81469-0.2645-0.23961-0.86999-0.16128-1.6704-0.16128-0.44421 0-0.77506 0.14331-0.77506 0.59305 0 0.19215 0.10322 0.36173 0.31057 0.50826l-0.68935 0.59397-0.7018-0.58245c0.40781-0.26864 0.39122-0.7253 0.1387-0.95293-0.16542-0.14976-0.46356-0.17464-0.86215-0.1728zm-9.3395 0.4032-1.5769 0.40781c-0.60456 0.1622-0.41794 0.76124-0.047 0.76124 0.11382 0 0.77-0.18294 0.89027-0.21427v3.0565c-0.33777 0-0.64098-0.0235-0.86308 9e-3l0.12442 0.72346c0.25205 0 2.4044 0.0645 2.5892-0.10184 0.1539-0.13962 0.14883-0.39352 0-0.529-0.16773-0.1516-0.8746-0.10183-1.117-0.10183zm27.801 0.0226v3.674h-0.17925c-0.95155 0-0.95477 1.0474 0 1.0474h0.84234zm-58.282 1.2377c-0.56725-0.0166-1.1248 0.42255-1.1248 1.1842 0 0.92574 0.9368 1.6331 1.8036 0.88934-0.0544 0.26588-0.19537 0.49029-0.42485 0.67507-0.36449 0.29445-0.77184 0.32302-0.96399 0.22395-0.34007-0.16865-0.56264 0.2622-0.28893 0.45896 0.60734 0.44605 2.804-0.18386 2.0819-2.5054-0.19491-0.6253-0.64143-0.9133-1.0829-0.9262zm-0.0304 0.53821c0.2539 5e-3 0.52255 0.20874 0.6336 0.68843-0.19768 0.41749-0.41748 0.62669-0.66078 0.62623-0.30643 0-0.52992-0.31795-0.52992-0.67415 0-0.39629 0.26957-0.64604 0.5571-0.64097zm58.374 6.1641c-0.3903 0-0.69995 0.12856-0.69995 0.52208 0 0.49029 0.4184 0.5267 0.8792 0.5267v4.5361c-0.42808-6e-3 -0.77322 0.0811-0.77322 0.52209 0 0.39767 0.30643 0.52669 0.70134 0.52669 0.68613 0 1.1184 5e-3 1.4257-0.0682l-0.0682-0.93312c-0.0797-0.0157-0.13778-0.047-0.23777-0.047v-1.963c0.0304-0.0304 0.0562-0.0442 0.0857-0.0728l-0.31519-3.5486h-0.99717zm-9.1879 0.87229c-0.65296 0-0.75756 0.52531-0.46725 0.78382 0.20367 0.18156 0.63267 0.12672 1.1995 0.12672v3.9394c-1.0986 0-1.7017-0.10414-1.7017 0.45343 0 0.34468 0.26496 0.45711 0.60826 0.45711 2.9021 0 3.3362 0.0806 3.5647-0.12672 0.19123-0.17372 0.1857-0.48891 0-0.6571-0.21611-0.1963-0.73636-0.12672-1.5616-0.12672v-4.8499h-1.6423zm-56.697 0.0839c-0.86769-0.0189-1.7593 0.22671-2.4201 0.87552-1.1769 1.1566-1.2736 3.3131 0.2069 4.4071 1.1718 0.87229 3.6707 0.73221 4.708 0.0484 1.2013-0.7875 0.21611-1.852-0.53453-1.1801-0.817 0.73128-4.0219 0.91146-4.0219-1.0829 0-2.3183 3.3039-2.1602 3.5486-1.0285 0.18478 0.85617 1.2566 0.8405 1.2566-0.23408 0-0.62623 0.0654-1.1709-0.1728-1.4345-0.21474-0.23731-0.57923-0.28385-0.90087 0.0207-0.25067-0.12949-0.52392-0.22672-0.81884-0.29077a4.4513 4.4513 0 0 0-0.85063-0.10183zm47.227 0.52669-1.1483 0.0152c-0.43269 0-0.77506 0.14238-0.77506 0.57692 0 0.5442 0.47785 0.58245 0.93865 0.58245l1.9395 3.9762h1.2105l1.9395-3.9762c0.26174 0 0.59443 0.0147 0.78935-0.16128 0.2433-0.2198 0.23639-0.62346 0-0.83681-0.27832-0.25068-0.91929-0.16128-2.186-0.16128-1.0045 0-1.1608 1.1594 0.10184 1.1594l-1.2492 2.5676-1.2617-2.5676c0.31288 0 0.51518-0.0281 0.60595-0.0848a0.58061 0.58061 0 0 0 0.0936-0.9133c-0.17327-0.15667-0.48661-0.18064-0.9981-0.17649zm-9.7155 0.51379v0.77507h0.87552v-0.77507zm-49.812 0.49214-0.92344 0.0115c-0.19261 0-0.34698 0.0488-0.4608 0.13962l0.12948 0.72714a1.4193 1.4193 0 0 0 0.46356 0.0668l1.5598 3.1984h0.97367l1.5607-3.1984c0.21105 0 0.47924 0.012 0.63545-0.12948a0.46541 0.46541 0 0 0 0-0.67323c-0.22349-0.20137-0.73913-0.12948-1.7584-0.12948-0.80963 0-0.9299 0.93219 0.082 0.93219l-1.0055 2.0662-1.0151-2.0662c0.25159 0 0.41425-0.0226 0.48706-0.0682 0.28431-0.17787 0.2774-0.55296 0.0756-0.73544-0.13962-0.1258-0.39168-0.14469-0.80363-0.14146zm49.794 0.88657c-0.0309 4.6e-4 -0.035 5e-3 -0.0659 6e-3 0.0253 0.24423 0.0636 0.48522 0.0871 0.72991 0.19768-4e-3 0.48107 9e-3 0.57323 9e-3v2.6676a0.61747 0.61747 0 0 1-0.18616 0.4608c-0.0382 0.0373-0.10552 0.0336-0.15299 0.0585l0.0567 0.76954c0.13271-0.0373 0.27602-0.0728 0.3539-0.12073 0.85386-0.5267 0.66124-0.90824 0.66124-4.5684-0.12533 0-0.73036-0.0161-1.3276-0.0115zm-30.883 0.8723-0.28339 6e-3c-0.50365 0-0.43453 0.49628-0.0917 0.53729l0.93036 1.8243-0.30413 0.60411h-0.53453c-0.12902 0-0.22118 0.0249-0.27648 0.0746-0.63037 0.57047 0.98749 0.46264 1.4483 0.46264 0.47417 0 0.52025-0.53729-0.0313-0.53729l1.2322-2.428c0.0926-7e-3 0.16266-0.035 0.20966-0.0848 0.1-0.10506 0.0949-0.28155-0.0115-0.37785-0.12257-0.11106-0.60779-0.0746-0.77921-0.0746-0.49859 0-0.46956 0.53729-0.0217 0.53729l-0.62807 1.2349-0.63452-1.2349c0.11889 0 0.2046-0.0249 0.25989-0.0746 0.1129-0.1023 0.10875-0.28938 0-0.38799-0.0765-0.0691-0.29168-0.0811-0.48338-0.0802zm39.554 4.9186v1.0294c0 1.0483 1.1022 0.99809 1.1603 0.13041h2.6514l-1.7649 5.2135c-0.0728 0.21888-0.0797 0.39536-0.0217 0.56448h1.0036c0.4396-0.78198 0.94694-2.6321 2.0045-5.778v-1.1603h-5.0328zm-46.974 1.6082c-2.416 0.094-3.8182 3.1869-1.933 5.0518 0.11612 0.11473 0.26542 0.1857 0.39859 0.27878h4.6845c0.0244-0.89764 9.2e-4 -2.0386 9.2e-4 -3.8864 0.28109 0 0.64235 0.0175 0.85248-0.1728 0.26265-0.23731 0.25159-0.66954 0-0.89718-0.29399-0.26588-0.98703-0.1728-2.0962-0.1728v0.37003c-0.25897-0.18617-0.52992-0.32441-0.81515-0.41565-0.38016-0.12119-0.7465-0.16911-1.0916-0.15575zm17.099 0.92898c-0.40412 0-0.72115 0.13271-0.72115 0.53637 0 0.30366 0.20045 0.54282 0.66862 0.54282v2.6215c-0.2281 0-0.39721 0.0502-0.50596 0.15022-0.15667 0.14377-0.16082 0.35805-0.0954 0.55066h1.6271c0-1.4759-0.0484-2.9413-0.11152-4.402h-0.86215zm51.351 0.0668c-2.4731 0.3092-2.9256 3.4053-0.9064 4.3343h1.0115c0-0.2751-0.0184-0.54697-0.0198-0.82161-1.6861-0.22441-1.5017-2.1704-0.0604-2.468l-0.0254-1.0451zm-29.65 0.0783 0.0189 0.77506h0.37509v-0.77506zm-38.72 0.16911c1.3543-0.0627 2.568 1.6649 1.3142 2.9053-1.599 1.5801-4.0389-0.78336-2.4326-2.3814 0.35021-0.34836 0.73959-0.50642 1.1188-0.52393zm-11.761 0.335a71.714 71.714 0 0 1 0.10091 3.7528h3.8518c7e-3 -0.0346 0.0424-0.0438 0.0424-0.0848 0-0.26496-0.17188-0.46909-0.57785-0.46909v-3.1993h-1.269c-0.22441 0-0.3843 0.0433-0.47969 0.12949a0.46541 0.46541 0 0 0 0 0.67322c0.18156 0.16497 0.5654 0.12949 0.81654 0.12949v1.9026c-2.5819 1.5741-1.9925-0.48292-1.9925-2.8348h-0.49213zm71.792 0.0244c-0.4184 4e-3 -0.95661 0.17234-1.61 0.64374v-0.56863h-1.2396c-0.83174 0-0.82575 0.911 0 0.911h0.32947v2.2123c-0.27187 0-0.8193-0.047-1.0105 0.12672-0.11704 0.10552-0.1364 0.25713-0.10967 0.4032h3.9007c6e-3 -0.0304 0.0359-0.0378 0.0359-0.0728 0-0.57139-0.59443-0.45711-1.9054-0.45711v-1.3723c0.28754-0.24284 1.1414-0.95938 1.5183-0.95938 0.23178 0 0.42716 0.3373 0.68843 0.3373 0.25528 0 0.46172-0.20229 0.46172-0.46633 0-0.288-0.36219-0.7428-1.0594-0.73727zm-21.279 0.85525 0.017 0.73866c8e-3 0 0.0364 9.2e-4 0.0433 9.2e-4v1.7621c4.6e-4 0.12395 9e-3 0.24652 9e-3 0.37094h0.7147c0.0221-0.63452 9e-3 -1.3497 9e-3 -2.8657a128.85 128.85 0 0 1-0.79304-7e-3zm-30.073 0.0972c-0.6207-6e-3 -1.246 0.27371-1.5805 0.8557-0.4221 0.73682-0.18709 1.4566 0.34099 1.9206h2.4455c0.52669-0.4631 0.75986-1.1796 0.34744-1.9142-0.31611-0.56356-0.93266-0.8557-1.5534-0.86215zm-6e-3 0.67415c0.81377 0.0258 1.5262 0.94694 0.77138 1.6183-0.96446 0.85617-2.5759-0.3373-1.5686-1.3031 0.2433-0.2327 0.52623-0.32348 0.79764-0.31518z" fill="#05ff00"/>
		<path d="m71.848 159.56c0 11.729-9.5081 21.237-21.237 21.237-11.729 0-21.237-9.5081-21.237-21.237s9.5081-21.237 21.237-21.237c11.729 0 21.237 9.5081 21.237 21.237z" fill="#4b4b4b" paint-order="fill markers stroke"/>
		<path d="m69.931 159.56c0 10.67-8.6492 19.319-19.319 19.319s-19.319-8.6492-19.319-19.319c0-10.67 8.6492-19.319 19.319-19.319s19.319 8.6492 19.319 19.319z" fill="#1f1f1f" paint-order="fill markers stroke"/>
		<path d="m50.61 165.59h13.565v2.7404h-13.565zm-14.047-15.158v3.303l9.6307 3.6012-9.6307 3.6012v3.303l14.047-5.2526v-3.303z" fill="#fefefe" fill-rule="evenodd"/>
	</g>
</svg>
